Heebo-Black.ufo
<glyph name="exclam" format="2">
  <advance width="578.6"/>
  <unicode hex="0021"/>
  <outline>
    <contour>
      <point x="446" y="473" type="line"/>
      <point x="493" y="1456" type="line"/>
      <point x="108" y="1456" type="line"/>
      <point x="155" y="473" type="line"/>
    </contour>
    <contour>
      <point x="99" y="273"/>
      <point x="99" y="167" type="curve" smooth="yes"/>
      <point x="99" y="61"/>
      <point x="180" y="-20"/>
      <point x="297" y="-20" type="curve" smooth="yes"/>
      <point x="415" y="-20"/>
      <point x="495" y="61"/>
      <point x="495" y="167" type="curve" smooth="yes"/>
      <point x="495" y="273"/>
      <point x="415" y="353"/>
      <point x="297" y="353" type="curve" smooth="yes"/>
      <point x="180" y="353"/>
    </contour>
  </outline>
</glyph>
<glyph name="numbersign" format="2">
  <advance width="1194.375"/>
  <unicode hex="0023"/>
  <outline>
    <contour>
      <point x="417" y="1456" type="line"/>
      <point x="179" y="0" type="line"/>
      <point x="390" y="0" type="line"/>
      <point x="626" y="1456" type="line"/>
    </contour>
    <contour>
      <point x="771" y="1456" type="line"/>
      <point x="534" y="0" type="line"/>
      <point x="745" y="0" type="line"/>
      <point x="982" y="1456" type="line"/>
    </contour>
    <contour>
      <point x="102" y="842" type="line"/>
      <point x="1143" y="842" type="line"/>
      <point x="1143" y="1040" type="line"/>
      <point x="102" y="1040" type="line"/>
    </contour>
    <contour>
      <point x="27" y="410" type="line"/>
      <point x="1067" y="410" type="line"/>
      <point x="1067" y="609" type="line"/>
      <point x="27" y="609" type="line"/>
    </contour>
  </outline>
</glyph>
<glyph name="dollar" format="2">
  <advance width="1192"/>
  <unicode hex="0024"/>
  <outline>
    <contour>
      <point x="722" y="1392" type="line"/>
      <point x="722" y="1685" type="line"/>
      <point x="555" y="1685" type="line"/>
      <point x="555" y="1392" type="line"/>
    </contour>
    <contour>
      <point x="700" y="-220" type="line"/>
      <point x="700" y="53" type="line"/>
      <point x="533" y="53" type="line"/>
      <point x="533" y="-220" type="line"/>
    </contour>
    <contour>
      <point x="745" y="494"/>
      <point x="745" y="390" type="curve"/>
      <point x="745" y="321"/>
      <point x="708" y="262"/>
      <point x="617" y="262" type="curve" smooth="yes"/>
      <point x="523" y="262"/>
      <point x="440" y="314"/>
      <point x="440" y="477" type="curve"/>
      <point x="80" y="477" type="line"/>
      <point x="80" y="103"/>
      <point x="359" y="-21"/>
      <point x="617" y="-21" type="curve" smooth="yes"/>
      <point x="906" y="-21"/>
      <point x="1106" y="130"/>
      <point x="1106" y="392" type="curve"/>
      <point x="1106" y="668"/>
      <point x="912" y="767"/>
      <point x="652" y="883" type="curve" smooth="yes"/>
      <point x="532" y="939"/>
      <point x="494" y="981"/>
      <point x="494" y="1060" type="curve"/>
      <point x="494" y="1132"/>
      <point x="529" y="1194"/>
      <point x="616" y="1194" type="curve" smooth="yes"/>
      <point x="692" y="1194"/>
      <point x="754" y="1148"/>
      <point x="754" y="1003" type="curve"/>
      <point x="1114" y="1003" type="line"/>
      <point x="1114" y="1299"/>
      <point x="913" y="1477"/>
      <point x="623" y="1477" type="curve" smooth="yes"/>
      <point x="335" y="1477"/>
      <point x="134" y="1314"/>
      <point x="134" y="1064" type="curve"/>
      <point x="134" y="784"/>
      <point x="322" y="692"/>
      <point x="589" y="579" type="curve" smooth="yes"/>
      <point x="702" y="530"/>
    </contour>
  </outline>
</glyph>
<glyph name="ampersand" format="2">
  <advance width="1391.95"/>
  <unicode hex="0026"/>
  <outline>
    <contour>
      <point x="616" y="957" type="curve"/>
      <point x="302" y="758" type="line"/>
      <point x="154" y="653"/>
      <point x="51" y="560"/>
      <point x="51" y="393" type="curve"/>
      <point x="51" y="151"/>
      <point x="234" y="-21"/>
      <point x="530" y="-21" type="curve"/>
      <point x="712" y="-21"/>
      <point x="834" y="22"/>
      <point x="977" y="120" type="curve" smooth="yes"/>
      <point x="984" y="122"/>
      <point x="1010" y="138"/>
      <point x="1017" y="140" type="curve" smooth="yes"/>
      <point x="1205" y="280"/>
      <point x="1269" y="498"/>
      <point x="1269" y="743" type="curve"/>
      <point x="968" y="743" type="line"/>
      <point x="968" y="464"/>
      <point x="765" y="269"/>
      <point x="555" y="269" type="curve" smooth="yes"/>
      <point x="483" y="269"/>
      <point x="413" y="327"/>
      <point x="413" y="422" type="curve"/>
      <point x="413" y="481"/>
      <point x="427" y="518"/>
      <point x="455" y="552" type="curve" smooth="yes"/>
      <point x="796" y="790" type="line" smooth="yes"/>
      <point x="909" y="869"/>
      <point x="989" y="982"/>
      <point x="989" y="1115" type="curve"/>
      <point x="989" y="1310"/>
      <point x="836" y="1477"/>
      <point x="600" y="1477" type="curve" smooth="yes"/>
      <point x="345" y="1477"/>
      <point x="180" y="1306"/>
      <point x="180" y="1073" type="curve" smooth="yes"/>
      <point x="180" y="925"/>
      <point x="268" y="797"/>
      <point x="405" y="621" type="curve" smooth="yes"/>
      <point x="957" y="0" type="line"/>
      <point x="1358" y="0" type="line"/>
      <point x="676" y="779" type="line" smooth="yes"/>
      <point x="574" y="902"/>
      <point x="490" y="987"/>
      <point x="490" y="1076" type="curve" smooth="yes"/>
      <point x="490" y="1138"/>
      <point x="526" y="1187"/>
      <point x="599" y="1187" type="curve" smooth="yes"/>
      <point x="664" y="1187"/>
      <point x="701" y="1133"/>
      <point x="701" y="1085" type="curve"/>
      <point x="701" y="1053"/>
      <point x="699" y="1009"/>
    </contour>
  </outline>
</glyph>
<glyph name="parenleft" format="2">
  <advance width="732.275"/>
  <unicode hex="0028"/>
  <outline>
    <contour>
      <point x="119" y="592" type="curve"/>
      <point x="119" y="561" type="line"/>
      <point x="119" y="9"/>
      <point x="375" y="-349"/>
      <point x="624" y="-446" type="curve"/>
      <point x="691" y="-263" type="line"/>
      <point x="545" y="-157"/>
      <point x="404" y="82"/>
      <point x="404" y="559" type="curve"/>
      <point x="404" y="594" type="line" smooth="yes"/>
      <point x="404" y="1072"/>
      <point x="545" y="1311"/>
      <point x="691" y="1418" type="curve"/>
      <point x="624" y="1599" type="line"/>
      <point x="375" y="1502"/>
      <point x="119" y="1147"/>
    </contour>
  </outline>
</glyph>
<glyph name="parenright" format="2">
  <advance width="729.275"/>
  <unicode hex="0029"/>
  <outline>
    <contour>
      <point x="639" y="561" type="curve"/>
      <point x="639" y="592" type="line"/>
      <point x="639" y="1113"/>
      <point x="371" y="1502"/>
      <point x="109" y="1599" type="curve"/>
      <point x="41" y="1417" type="line"/>
      <point x="187" y="1309"/>
      <point x="328" y="1072"/>
      <point x="328" y="594" type="curve" smooth="yes"/>
      <point x="328" y="559" type="line"/>
      <point x="328" y="82"/>
      <point x="185" y="-156"/>
      <point x="41" y="-263" type="curve"/>
      <point x="109" y="-446" type="line"/>
      <point x="371" y="-349"/>
      <point x="639" y="42"/>
    </contour>
  </outline>
</glyph>
<glyph name="hyphen" format="2">
  <advance width="949.55"/>
  <unicode hex="002D"/>
  <outline>
    <contour>
      <point x="773" y="481" type="line"/>
      <point x="773" y="772" type="line"/>
      <point x="160" y="772" type="line"/>
      <point x="160" y="481" type="line"/>
    </contour>
  </outline>
</glyph>
<glyph name="period" format="2">
  <advance width="634.125"/>
  <unicode hex="002E"/>
  <outline>
    <contour>
      <point x="114" y="280"/>
      <point x="114" y="175" type="curve" smooth="yes"/>
      <point x="114" y="69"/>
      <point x="195" y="-11"/>
      <point x="311" y="-11" type="curve" smooth="yes"/>
      <point x="428" y="-11"/>
      <point x="508" y="69"/>
      <point x="508" y="175" type="curve" smooth="yes"/>
      <point x="508" y="280"/>
      <point x="428" y="360"/>
      <point x="311" y="360" type="curve" smooth="yes"/>
      <point x="195" y="360"/>
    </contour>
  </outline>
</glyph>
<glyph name="one" format="2">
  <advance width="1192"/>
  <unicode hex="0031"/>
  <outline>
    <contour>
      <point x="851" y="0" type="line"/>
      <point x="851" y="1455" type="line"/>
      <point x="818" y="1455" type="line"/>
      <point x="165" y="1227" type="line"/>
      <point x="165" y="944" type="line"/>
      <point x="490" y="1031" type="line"/>
      <point x="490" y="0" type="line"/>
    </contour>
  </outline>
</glyph>
<glyph name="four" format="2">
  <advance width="1192"/>
  <unicode hex="0034"/>
  <outline>
    <contour>
      <point x="1130" y="299" type="line"/>
      <point x="1130" y="589" type="line"/>
      <point x="398" y="589" type="line"/>
      <point x="614" y="937" type="line"/>
      <point x="917" y="1456" type="line"/>
      <point x="633" y="1456" type="line"/>
      <point x="57" y="532" type="line"/>
      <point x="79" y="299" type="line"/>
    </contour>
    <contour>
      <point x="991" y="0" type="line"/>
      <point x="991" y="1456" type="line"/>
      <point x="631" y="1456" type="line"/>
      <point x="631" y="0" type="line"/>
    </contour>
  </outline>
</glyph>
<glyph name="five" format="2">
  <advance width="1192"/>
  <unicode hex="0035"/>
  <outline>
    <contour>
      <point x="99" y="706" type="line"/>
      <point x="386" y="636" type="line"/>
      <point x="407" y="664"/>
      <point x="457" y="707"/>
      <point x="550" y="707" type="curve"/>
      <point x="690" y="707"/>
      <point x="744" y="630"/>
      <point x="744" y="499" type="curve" smooth="yes"/>
      <point x="744" y="383"/>
      <point x="715" y="270"/>
      <point x="589" y="270" type="curve" smooth="yes"/>
      <point x="500" y="270"/>
      <point x="439" y="332"/>
      <point x="435" y="421" type="curve"/>
      <point x="73" y="421" type="line"/>
      <point x="67" y="154"/>
      <point x="329" y="-20"/>
      <point x="592" y="-20" type="curve" smooth="yes"/>
      <point x="942" y="-20"/>
      <point x="1105" y="225"/>
      <point x="1105" y="470" type="curve" smooth="yes"/>
      <point x="1105" y="786"/>
      <point x="944" y="962"/>
      <point x="653" y="962" type="curve"/>
      <point x="564" y="962"/>
      <point x="482" y="929"/>
      <point x="452" y="913" type="curve"/>
      <point x="483" y="1166" type="line"/>
      <point x="1053" y="1166" type="line"/>
      <point x="1053" y="1456" type="line"/>
      <point x="189" y="1456" type="line"/>
    </contour>
  </outline>
</glyph>
<glyph name="six" format="2">
  <advance width="1192"/>
  <unicode hex="0036"/>
  <outline>
    <contour>
      <point x="909" y="1480" type="line"/>
      <point x="851" y="1480" type="line"/>
      <point x="444" y="1480"/>
      <point x="79" y="1208"/>
      <point x="79" y="701" type="curve" smooth="yes"/>
      <point x="79" y="575" type="line" smooth="yes"/>
      <point x="79" y="187"/>
      <point x="313" y="-20"/>
      <point x="622" y="-20" type="curve" smooth="yes"/>
      <point x="924" y="-20"/>
      <point x="1139" y="197"/>
      <point x="1139" y="483" type="curve" smooth="yes"/>
      <point x="1139" y="773"/>
      <point x="992" y="988"/>
      <point x="727" y="988" type="curve" smooth="yes"/>
      <point x="464" y="988"/>
      <point x="329" y="767"/>
      <point x="335" y="633" type="curve"/>
      <point x="419" y="533" type="line"/>
      <point x="418" y="608"/>
      <point x="478" y="700"/>
      <point x="600" y="700" type="curve" smooth="yes"/>
      <point x="701" y="700"/>
      <point x="778" y="626"/>
      <point x="778" y="485" type="curve" smooth="yes"/>
      <point x="778" y="362"/>
      <point x="708" y="270"/>
      <point x="612" y="270" type="curve" smooth="yes"/>
      <point x="496" y="270"/>
      <point x="440" y="345"/>
      <point x="440" y="515" type="curve"/>
      <point x="440" y="780" type="line" smooth="yes"/>
      <point x="440" y="1069"/>
      <point x="639" y="1185"/>
      <point x="890" y="1185" type="curve" smooth="yes"/>
      <point x="909" y="1185" type="line"/>
    </contour>
  </outline>
</glyph>
<glyph name="eight" format="2">
  <advance width="1192"/>
  <unicode hex="0038"/>
  <outline>
    <contour>
      <point x="1107" y="122"/>
      <point x="1107" y="404" type="curve" smooth="yes"/>
      <point x="1107" y="662"/>
      <point x="890" y="814"/>
      <point x="596" y="814" type="curve" smooth="yes"/>
      <point x="306" y="814"/>
      <point x="83" y="662"/>
      <point x="83" y="404" type="curve" smooth="yes"/>
      <point x="83" y="122"/>
      <point x="304" y="-20"/>
      <point x="598" y="-20" type="curve" smooth="yes"/>
      <point x="893" y="-20"/>
    </contour>
    <contour>
      <point x="746" y="543"/>
      <point x="746" y="436" type="curve" smooth="yes"/>
      <point x="746" y="334"/>
      <point x="688" y="270"/>
      <point x="598" y="270" type="curve" smooth="yes"/>
      <point x="506" y="270"/>
      <point x="445" y="334"/>
      <point x="445" y="436" type="curve" smooth="yes"/>
      <point x="445" y="543"/>
      <point x="506" y="599"/>
      <point x="596" y="599" type="curve" smooth="yes"/>
      <point x="687" y="599"/>
    </contour>
    <contour>
      <point x="1078" y="833"/>
      <point x="1078" y="1064" type="curve" smooth="yes"/>
      <point x="1078" y="1334"/>
      <point x="880" y="1477"/>
      <point x="595" y="1477" type="curve" smooth="yes"/>
      <point x="315" y="1477"/>
      <point x="113" y="1334"/>
      <point x="113" y="1064" type="curve" smooth="yes"/>
      <point x="113" y="833"/>
      <point x="315" y="682"/>
      <point x="598" y="682" type="curve" smooth="yes"/>
      <point x="881" y="682"/>
    </contour>
    <contour>
      <point x="718" y="1133"/>
      <point x="718" y="1042" type="curve" smooth="yes"/>
      <point x="718" y="952"/>
      <point x="681" y="889"/>
      <point x="598" y="889" type="curve" smooth="yes"/>
      <point x="514" y="889"/>
      <point x="475" y="952"/>
      <point x="475" y="1042" type="curve" smooth="yes"/>
      <point x="475" y="1133"/>
      <point x="514" y="1187"/>
      <point x="595" y="1187" type="curve" smooth="yes"/>
      <point x="679" y="1187"/>
    </contour>
  </outline>
</glyph>
<glyph name="less" format="2">
  <advance width="1043.925"/>
  <unicode hex="003C"/>
  <outline>
    <contour>
      <point x="932" y="437" type="line"/>
      <point x="337" y="621" type="line"/>
      <point x="43" y="710" type="line"/>
      <point x="43" y="452" type="line"/>
      <point x="932" y="96" type="line"/>
    </contour>
    <contour>
      <point x="337" y="579" type="line"/>
      <point x="932" y="768" type="line"/>
      <point x="932" y="1107" type="line"/>
      <point x="43" y="751" type="line"/>
      <point x="43" y="493" type="line"/>
    </contour>
  </outline>
</glyph>
<glyph name="greater" format="2">
  <advance width="1050"/>
  <unicode hex="003E"/>
  <outline>
    <contour>
      <point x="111" y="765" type="line"/>
      <point x="702" y="581" type="line"/>
      <point x="994" y="491" type="line"/>
      <point x="994" y="750" type="line"/>
      <point x="111" y="1105" type="line"/>
    </contour>
    <contour>
      <point x="702" y="625" type="line"/>
      <point x="111" y="435" type="line"/>
      <point x="111" y="95" type="line"/>
      <point x="994" y="451" type="line"/>
      <point x="994" y="708" type="line"/>
    </contour>
  </outline>
</glyph>
<glyph name="question" format="2">
  <advance width="1055.725"/>
  <unicode hex="003F"/>
  <outline>
    <contour>
      <point x="340" y="473" type="curve"/>
      <point x="645" y="473" type="line"/>
      <point x="649" y="579"/>
      <point x="669" y="634"/>
      <point x="746" y="701" type="curve" smooth="yes"/>
      <point x="879" y="824"/>
      <point x="988" y="904"/>
      <point x="988" y="1076" type="curve" smooth="yes"/>
      <point x="988" y="1341"/>
      <point x="807" y="1476"/>
      <point x="510" y="1476" type="curve" smooth="yes"/>
      <point x="240" y="1476"/>
      <point x="30" y="1353"/>
      <point x="26" y="1039" type="curve"/>
      <point x="388" y="1039" type="line"/>
      <point x="391" y="1146"/>
      <point x="450" y="1187"/>
      <point x="510" y="1187" type="curve" smooth="yes"/>
      <point x="587" y="1187"/>
      <point x="626" y="1150"/>
      <point x="626" y="1058" type="curve" smooth="yes"/>
      <point x="626" y="989"/>
      <point x="570" y="923"/>
      <point x="479" y="851" type="curve" smooth="yes"/>
      <point x="372" y="766"/>
      <point x="340" y="647"/>
    </contour>
    <contour>
      <point x="297" y="280"/>
      <point x="297" y="174" type="curve" smooth="yes"/>
      <point x="297" y="68"/>
      <point x="378" y="-12"/>
      <point x="495" y="-12" type="curve" smooth="yes"/>
      <point x="613" y="-12"/>
      <point x="693" y="68"/>
      <point x="693" y="174" type="curve" smooth="yes"/>
      <point x="693" y="280"/>
      <point x="613" y="360"/>
      <point x="495" y="360" type="curve" smooth="yes"/>
      <point x="378" y="360"/>
    </contour>
  </outline>
</glyph>
<glyph name="at" format="2">
  <advance width="1829.2"/>
  <unicode hex="0040"/>
  <outline>
    <contour>
      <point x="1744" y="269"/>
      <point x="1754" y="559" type="curve"/>
      <point x="1776" y="1059"/>
      <point x="1487" y="1406"/>
      <point x="961" y="1406" type="curve" smooth="yes"/>
      <point x="427" y="1406"/>
      <point x="87" y="999"/>
      <point x="63" y="454" type="curve" smooth="yes"/>
      <point x="41" y="-152"/>
      <point x="347" y="-453"/>
      <point x="890" y="-453" type="curve" smooth="yes"/>
      <point x="1014" y="-453"/>
      <point x="1170" y="-424"/>
      <point x="1264" y="-364" type="curve"/>
      <point x="1225" y="-182" type="line"/>
      <point x="1141" y="-215"/>
      <point x="1010" y="-244"/>
      <point x="894" y="-244" type="curve" smooth="yes"/>
      <point x="496" y="-244"/>
      <point x="273" y="-23"/>
      <point x="295" y="454" type="curve" smooth="yes"/>
      <point x="316" y="883"/>
      <point x="555" y="1221"/>
      <point x="957" y="1221" type="curve" smooth="yes"/>
      <point x="1374" y="1221"/>
      <point x="1561" y="945"/>
      <point x="1541" y="547" type="curve" smooth="yes"/>
      <point x="1535" y="333"/>
      <point x="1453" y="170"/>
      <point x="1344" y="170" type="curve" smooth="yes"/>
      <point x="1291" y="170"/>
      <point x="1241" y="197"/>
      <point x="1255" y="287" type="curve"/>
      <point x="1306" y="880" type="line"/>
      <point x="1066" y="880" type="line"/>
      <point x="1015" y="287" type="line" smooth="yes"/>
      <point x="1006" y="97"/>
      <point x="1128" y="-21"/>
      <point x="1297" y="-21" type="curve"/>
      <point x="1613" y="-21"/>
    </contour>
    <contour>
      <point x="751" y="273"/>
      <point x="764" y="439" type="curve" smooth="yes"/>
      <point x="788" y="658"/>
      <point x="848" y="781"/>
      <point x="1006" y="781" type="curve" smooth="yes"/>
      <point x="1090" y="781"/>
      <point x="1152" y="740"/>
      <point x="1190" y="707" type="curve"/>
      <point x="1306" y="880" type="line"/>
      <point x="1221" y="936"/>
      <point x="1146" y="990"/>
      <point x="985" y="990" type="curve" smooth="yes"/>
      <point x="731" y="990"/>
      <point x="539" y="774"/>
      <point x="498" y="439" type="curve" smooth="yes"/>
      <point x="472" y="163"/>
      <point x="602" y="-16"/>
      <point x="796" y="-16" type="curve" smooth="yes"/>
      <point x="957" y="-16"/>
      <point x="1071" y="76"/>
      <point x="1132" y="260" type="curve"/>
      <point x="1033" y="385" type="line"/>
      <point x="992" y="216"/>
      <point x="920" y="190"/>
      <point x="881" y="190" type="curve" smooth="yes"/>
      <point x="792" y="190"/>
    </contour>
  </outline>
</glyph>
<glyph name="A" format="2">
  <advance width="1408.675"/>
  <unicode hex="0041"/>
  <anchor x="707" y="11" name="bottom"/>
  <anchor x="1409" y="-407" name="bottom_dd"/>
  <anchor x="1300" y="0" name="ogonek"/>
  <anchor x="1417" y="0" name="right"/>
  <anchor x="322" y="1454" name="tonos"/>
  <anchor x="706" y="1599" name="top"/>
  <anchor x="1409" y="1599" name="top0315"/>
  <anchor x="1409" y="1600" name="top_dd"/>
  <outline>
    <contour>
      <point x="396" y="0" type="line"/>
      <point x="737" y="1105" type="line"/>
      <point x="781" y="1456" type="line"/>
      <point x="527" y="1456" type="line"/>
      <point x="-7" y="0" type="line"/>
    </contour>
    <contour>
      <point x="671" y="1105" type="line"/>
      <point x="1013" y="0" type="line"/>
      <point x="1416" y="0" type="line"/>
      <point x="879" y="1456" type="line"/>
      <point x="622" y="1456" type="line"/>
    </contour>
    <contour>
      <point x="1009" y="244" type="line"/>
      <point x="1009" y="547" type="line"/>
      <point x="262" y="547" type="line"/>
      <point x="262" y="244" type="line"/>
    </contour>
  </outline>
</glyph>
<glyph name="D" format="2">
  <advance width="1323.475"/>
  <unicode hex="0044"/>
  <anchor x="471" y="10" name="bottom"/>
  <anchor x="1323" y="-407" name="bottom_dd"/>
  <anchor x="326" y="723" name="cross"/>
  <anchor x="472" y="1597" name="top"/>
  <anchor x="1323" y="1597" name="top0315"/>
  <anchor x="1323" y="1600" name="top_dd"/>
  <outline>
    <contour>
      <point x="262" y="0" type="line"/>
      <point x="583" y="0" type="line"/>
      <point x="976" y="0"/>
      <point x="1258" y="290"/>
      <point x="1258" y="703" type="curve"/>
      <point x="1258" y="752" type="line"/>
      <point x="1258" y="1165"/>
      <point x="976" y="1456"/>
      <point x="577" y="1456" type="curve"/>
      <point x="256" y="1456" type="line"/>
      <point x="256" y="1153" type="line"/>
      <point x="577" y="1153" type="line"/>
      <point x="775" y="1153"/>
      <point x="876" y="1021"/>
      <point x="876" y="754" type="curve"/>
      <point x="876" y="703" type="line" smooth="yes"/>
      <point x="876" y="432"/>
      <point x="772" y="302"/>
      <point x="583" y="302" type="curve"/>
      <point x="264" y="302" type="line"/>
    </contour>
    <contour>
      <point x="479" y="0" type="line"/>
      <point x="479" y="1456" type="line"/>
      <point x="103" y="1456" type="line"/>
      <point x="103" y="0" type="line"/>
    </contour>
  </outline>
</glyph>
<glyph name="G" format="2">
  <advance width="1395.55"/>
  <unicode hex="0047"/>
  <anchor x="725" y="2" name="bottom"/>
  <anchor x="1396" y="-407" name="bottom_dd"/>
  <anchor x="711" y="1593" name="top"/>
  <anchor x="1396" y="1593" name="top0315"/>
  <anchor x="1396" y="1600" name="top_dd"/>
  <outline>
    <contour>
      <point x="1309" y="180" type="curve"/>
      <point x="1309" y="794" type="line"/>
      <point x="706" y="794" type="line"/>
      <point x="706" y="528" type="line"/>
      <point x="933" y="528" type="line"/>
      <point x="933" y="330" type="line"/>
      <point x="906" y="308"/>
      <point x="851" y="282"/>
      <point x="750" y="282" type="curve" smooth="yes"/>
      <point x="543" y="282"/>
      <point x="456" y="413"/>
      <point x="456" y="694" type="curve" smooth="yes"/>
      <point x="456" y="762" type="line" smooth="yes"/>
      <point x="456" y="1047"/>
      <point x="558" y="1176"/>
      <point x="716" y="1176" type="curve" smooth="yes"/>
      <point x="867" y="1176"/>
      <point x="928" y="1107"/>
      <point x="947" y="968" type="curve"/>
      <point x="1308" y="968" type="line"/>
      <point x="1279" y="1268"/>
      <point x="1112" y="1477"/>
      <point x="703" y="1477" type="curve" smooth="yes"/>
      <point x="338" y="1477"/>
      <point x="75" y="1221"/>
      <point x="75" y="760" type="curve" smooth="yes"/>
      <point x="75" y="694" type="line" smooth="yes"/>
      <point x="75" y="233"/>
      <point x="331" y="-20"/>
      <point x="723" y="-20" type="curve" smooth="yes"/>
      <point x="1039" y="-20"/>
      <point x="1231" y="96"/>
    </contour>
  </outline>
</glyph>
<glyph name="I" format="2">
  <advance width="625.65"/>
  <unicode hex="0049"/>
  <anchor x="313" y="-2" name="bottom"/>
  <anchor x="626" y="-407" name="bottom_dd"/>
  <anchor x="424" y="0" name="ogonek"/>
  <anchor x="491" y="0" name="right"/>
  <anchor x="-117" y="1457" name="tonos"/>
  <anchor x="312" y="1597" name="top"/>
  <anchor x="626" y="1597" name="top0315"/>
  <anchor x="626" y="1600" name="top_dd"/>
  <outline>
    <contour>
      <point x="500" y="0" type="line"/>
      <point x="500" y="1456" type="line"/>
      <point x="126" y="1456" type="line"/>
      <point x="126" y="0" type="line"/>
    </contour>
  </outline>
</glyph>
<glyph name="J" format="2">
  <advance width="1153.5"/>
  <unicode hex="004A"/>
  <anchor x="512" y="-10" name="bottom"/>
  <anchor x="1154" y="-407" name="bottom_dd"/>
  <anchor x="857" y="1601" name="top"/>
  <anchor x="1154" y="1601" name="top0315"/>
  <anchor x="1154" y="1600" name="top_dd"/>
  <outline>
    <contour>
      <point x="675" y="1456" type="line"/>
      <point x="675" y="463" type="line"/>
      <point x="675" y="351"/>
      <point x="629" y="282"/>
      <point x="541" y="282" type="curve" smooth="yes"/>
      <point x="456" y="282"/>
      <point x="409" y="312"/>
      <point x="409" y="448" type="curve"/>
      <point x="32" y="448" type="line"/>
      <point x="32" y="126"/>
      <point x="246" y="-20"/>
      <point x="541" y="-20" type="curve" smooth="yes"/>
      <point x="826" y="-20"/>
      <point x="1049" y="171"/>
      <point x="1049" y="463" type="curve"/>
      <point x="1049" y="1456" type="line"/>
    </contour>
  </outline>
</glyph>
<glyph name="K" format="2">
  <advance width="1311.125"/>
  <unicode hex="004B"/>
  <anchor x="647" y="43" name="bottom"/>
  <anchor x="1311" y="-407" name="bottom_dd"/>
  <anchor x="242" y="1224" name="cross"/>
  <anchor x="1195" y="2" name="right"/>
  <anchor x="592" y="1606" name="top"/>
  <anchor x="1311" y="1606" name="top0315"/>
  <anchor x="1311" y="1600" name="top_dd"/>
  <outline>
    <contour>
      <point x="479" y="0" type="line"/>
      <point x="479" y="1456" type="line"/>
      <point x="103" y="1456" type="line"/>
      <point x="103" y="0" type="line"/>
    </contour>
    <contour>
      <point x="787" y="703" type="line"/>
      <point x="1344" y="1456" type="line"/>
      <point x="881" y="1456" type="line"/>
      <point x="591" y="1023" type="line"/>
      <point x="384" y="692" type="line"/>
      <point x="454" y="335" type="line"/>
    </contour>
    <contour>
      <point x="546" y="639" type="line"/>
      <point x="896" y="0" type="line"/>
      <point x="1340" y="0" type="line"/>
      <point x="838" y="858" type="line"/>
    </contour>
  </outline>
</glyph>
<glyph name="L" format="2">
  <advance width="1114.275"/>
  <unicode hex="004C"/>
  <anchor x="589" y="10" name="bottom"/>
  <anchor x="1114" y="-407" name="bottom_dd"/>
  <anchor x="692" y="1456" name="caron"/>
  <anchor x="599" y="863" name="dot"/>
  <anchor x="303" y="1604" name="top"/>
  <anchor x="1114" y="1604" name="top0315"/>
  <anchor x="1114" y="1600" name="top_dd"/>
  <outline>
    <contour>
      <point x="1078" y="0" type="line"/>
      <point x="1078" y="302" type="line"/>
      <point x="346" y="302" type="line"/>
      <point x="346" y="0" type="line"/>
    </contour>
    <contour>
      <point x="478" y="0" type="line"/>
      <point x="478" y="1456" type="line"/>
      <point x="103" y="1456" type="line"/>
      <point x="103" y="0" type="line"/>
    </contour>
  </outline>
</glyph>
<glyph name="M" format="2">
  <advance width="1798.375"/>
  <unicode hex="004D"/>
  <anchor x="897" y="10" name="bottom"/>
  <anchor x="1798" y="-407" name="bottom_dd"/>
  <anchor x="1691" y="0" name="right"/>
  <anchor x="894" y="1599" name="top"/>
  <anchor x="1798" y="1599" name="top0315"/>
  <anchor x="1798" y="1600" name="top_dd"/>
  <outline>
    <contour>
      <point x="595" y="1456" type="line"/>
      <point x="291" y="1456" type="line"/>
      <point x="774" y="0" type="line"/>
      <point x="1021" y="0" type="line"/>
      <point x="1504" y="1456" type="line"/>
      <point x="1200" y="1456" type="line"/>
      <point x="898" y="494" type="line"/>
    </contour>
    <contour>
      <point x="420" y="1456" type="line"/>
      <point x="103" y="1456" type="line"/>
      <point x="103" y="0" type="line"/>
      <point x="479" y="0" type="line"/>
      <point x="479" y="280" type="line"/>
    </contour>
    <contour>
      <point x="1693" y="1456" type="line"/>
      <point x="1375" y="1456" type="line"/>
      <point x="1316" y="280" type="line"/>
      <point x="1316" y="0" type="line"/>
      <point x="1693" y="0" type="line"/>
    </contour>
  </outline>
</glyph>
<glyph name="O" format="2">
  <advance width="1417.75"/>
  <unicode hex="004F"/>
  <anchor x="714" y="0" name="bottom"/>
  <anchor x="1418" y="-407" name="bottom_dd"/>
  <anchor x="90" y="1454" name="tonos"/>
  <anchor x="706" y="1598" name="top"/>
  <anchor x="1418" y="1598" name="top0315"/>
  <anchor x="1418" y="1600" name="top_dd"/>
  <outline>
    <contour>
      <point x="1352" y="706" type="curve"/>
      <point x="1352" y="749" type="line"/>
      <point x="1352" y="1200"/>
      <point x="1082" y="1476"/>
      <point x="708" y="1476" type="curve" smooth="yes"/>
      <point x="329" y="1476"/>
      <point x="64" y="1200"/>
      <point x="64" y="749" type="curve"/>
      <point x="64" y="706" type="line"/>
      <point x="64" y="255"/>
      <point x="331" y="-20"/>
      <point x="710" y="-20" type="curve" smooth="yes"/>
      <point x="1084" y="-20"/>
      <point x="1352" y="255"/>
    </contour>
    <contour>
      <point x="971" y="751" type="curve"/>
      <point x="971" y="706" type="line"/>
      <point x="971" y="435"/>
      <point x="878" y="286"/>
      <point x="710" y="286" type="curve" smooth="yes"/>
      <point x="534" y="286"/>
      <point x="446" y="435"/>
      <point x="446" y="706" type="curve" smooth="yes"/>
      <point x="446" y="751" type="line" smooth="yes"/>
      <point x="446" y="1027"/>
      <point x="532" y="1169"/>
      <point x="708" y="1169" type="curve" smooth="yes"/>
      <point x="876" y="1169"/>
      <point x="971" y="1027"/>
    </contour>
  </outline>
</glyph>
<glyph name="Q" format="2">
  <advance width="1417.75"/>
  <unicode hex="0051"/>
  <anchor x="698" y="-10" name="bottom"/>
  <anchor x="1418" y="-407" name="bottom_dd"/>
  <anchor x="700" y="1600" name="top"/>
  <anchor x="1418" y="1600" name="top0315"/>
  <anchor x="1418" y="1600" name="top_dd"/>
  <outline>
    <contour>
      <point x="1339" y="-66" type="line"/>
      <point x="925" y="263" type="line"/>
      <point x="700" y="60" type="line"/>
      <point x="1107" y="-269" type="line"/>
    </contour>
    <contour>
      <point x="1355" y="706" type="curve"/>
      <point x="1355" y="749" type="line"/>
      <point x="1355" y="1200"/>
      <point x="1085" y="1476"/>
      <point x="711" y="1476" type="curve" smooth="yes"/>
      <point x="332" y="1476"/>
      <point x="67" y="1200"/>
      <point x="67" y="749" type="curve"/>
      <point x="67" y="706" type="line"/>
      <point x="67" y="255"/>
      <point x="334" y="-20"/>
      <point x="713" y="-20" type="curve" smooth="yes"/>
      <point x="1087" y="-20"/>
      <point x="1355" y="255"/>
    </contour>
    <contour>
      <point x="974" y="751" type="curve"/>
      <point x="974" y="706" type="line"/>
      <point x="974" y="435"/>
      <point x="880" y="286"/>
      <point x="713" y="286" type="curve" smooth="yes"/>
      <point x="536" y="286"/>
      <point x="448" y="435"/>
      <point x="448" y="706" type="curve" smooth="yes"/>
      <point x="448" y="751" type="line" smooth="yes"/>
      <point x="448" y="1027"/>
      <point x="534" y="1169"/>
      <point x="711" y="1169" type="curve" smooth="yes"/>
      <point x="878" y="1169"/>
      <point x="974" y="1027"/>
    </contour>
  </outline>
</glyph>
<glyph name="S" format="2">
  <advance width="1288.65"/>
  <unicode hex="0053"/>
  <anchor x="664" y="1" name="bottom"/>
  <anchor x="1289" y="-407" name="bottom_dd"/>
  <anchor x="666" y="1598" name="top"/>
  <anchor x="1289" y="1598" name="top0315"/>
  <anchor x="1289" y="1600" name="top_dd"/>
  <outline>
    <contour>
      <point x="844" y="470"/>
      <point x="844" y="392" type="curve" smooth="yes"/>
      <point x="844" y="332"/>
      <point x="800" y="274"/>
      <point x="677" y="274" type="curve" smooth="yes"/>
      <point x="516" y="274"/>
      <point x="438" y="325"/>
      <point x="438" y="484" type="curve"/>
      <point x="62" y="484" type="line"/>
      <point x="62" y="129"/>
      <point x="374" y="-20"/>
      <point x="677" y="-20" type="curve" smooth="yes"/>
      <point x="1007" y="-20"/>
      <point x="1219" y="127"/>
      <point x="1219" y="394" type="curve"/>
      <point x="1219" y="643"/>
      <point x="1043" y="785"/>
      <point x="732" y="885" type="curve"/>
      <point x="581" y="935"/>
      <point x="479" y="980"/>
      <point x="479" y="1057" type="curve"/>
      <point x="479" y="1124"/>
      <point x="541" y="1180"/>
      <point x="664" y="1180" type="curve" smooth="yes"/>
      <point x="789" y="1180"/>
      <point x="847" y="1115"/>
      <point x="847" y="1021" type="curve"/>
      <point x="1221" y="1021" type="line"/>
      <point x="1221" y="1305"/>
      <point x="993" y="1476"/>
      <point x="672" y="1476" type="curve" smooth="yes"/>
      <point x="346" y="1476"/>
      <point x="105" y="1317"/>
      <point x="105" y="1062" type="curve"/>
      <point x="105" y="792"/>
      <point x="351" y="670"/>
      <point x="603" y="585" type="curve"/>
      <point x="812" y="514"/>
    </contour>
  </outline>
</glyph>
<glyph name="T" format="2">
  <advance width="1297.8"/>
  <unicode hex="0054"/>
  <anchor x="639" y="12" name="bottom"/>
  <anchor x="1298" y="-407" name="bottom_dd"/>
  <anchor x="605" y="797" name="cross"/>
  <anchor x="781" y="0" name="right"/>
  <anchor x="639" y="1600" name="top"/>
  <anchor x="1298" y="1600" name="top0315"/>
  <anchor x="1298" y="1600" name="top_dd"/>
  <outline>
    <contour>
      <point x="831" y="0" type="line"/>
      <point x="831" y="1456" type="line"/>
      <point x="456" y="1456" type="line"/>
      <point x="456" y="0" type="line"/>
    </contour>
    <contour>
      <point x="1261" y="1153" type="line"/>
      <point x="1261" y="1456" type="line"/>
      <point x="35" y="1456" type="line"/>
      <point x="35" y="1153" type="line"/>
    </contour>
  </outline>
</glyph>
<glyph name="V" format="2">
  <advance width="1363.85"/>
  <unicode hex="0056"/>
  <anchor x="679" y="10" name="bottom"/>
  <anchor x="1364" y="-407" name="bottom_dd"/>
  <anchor x="680" y="1612" name="top"/>
  <anchor x="1364" y="1612" name="top0315"/>
  <anchor x="1364" y="1600" name="top_dd"/>
  <outline>
    <contour>
      <point x="952" y="1456" type="line"/>
      <point x="663" y="375" type="line"/>
      <point x="615" y="0" type="line"/>
      <point x="886" y="0" type="line"/>
      <point x="1372" y="1456" type="line"/>
    </contour>
    <contour>
      <point x="698" y="375" type="line"/>
      <point x="411" y="1456" type="line"/>
      <point x="-7" y="1456" type="line"/>
      <point x="476" y="0" type="line"/>
      <point x="749" y="0" type="line"/>
    </contour>
  </outline>
</glyph>
<glyph name="Z" format="2">
  <advance width="1251.725"/>
  <unicode hex="005A"/>
  <anchor x="637" y="10" name="bottom"/>
  <anchor x="1252" y="-407" name="bottom_dd"/>
  <anchor x="638" y="1599" name="top"/>
  <anchor x="1252" y="1599" name="top0315"/>
  <anchor x="1252" y="1600" name="top_dd"/>
  <outline>
    <contour>
      <point x="1207" y="0" type="line"/>
      <point x="1207" y="302" type="line"/>
      <point x="149" y="302" type="line"/>
      <point x="149" y="0" type="line"/>
    </contour>
    <contour>
      <point x="337" y="0" type="line"/>
      <point x="1202" y="1261" type="line"/>
      <point x="1202" y="1456" type="line"/>
      <point x="941" y="1456" type="line"/>
      <point x="65" y="200" type="line"/>
      <point x="65" y="0" type="line"/>
    </contour>
    <contour>
      <point x="1082" y="1153" type="line"/>
      <point x="1082" y="1456" type="line"/>
      <point x="56" y="1456" type="line"/>
      <point x="56" y="1153" type="line"/>
    </contour>
  </outline>
</glyph>
<glyph name="asciicircum" format="2">
  <advance width="922.525"/>
  <unicode hex="005E"/>
  <outline>
    <contour>
      <point x="301" y="729" type="line"/>
      <point x="470" y="1181" type="line"/>
      <point x="530" y="1456" type="line"/>
      <point x="331" y="1456" type="line"/>
      <point x="32" y="729" type="line"/>
    </contour>
    <contour>
      <point x="457" y="1181" type="line"/>
      <point x="627" y="729" type="line"/>
      <point x="896" y="729" type="line"/>
      <point x="597" y="1456" type="line"/>
      <point x="398" y="1456" type="line"/>
    </contour>
  </outline>
</glyph>
<glyph name="grave" format="2">
  <advance width="708.375"/>
  <unicode hex="0060"/>
  <outline>
    <contour>
      <point x="628" y="1216" type="line"/>
      <point x="427" y="1536" type="line"/>
      <point x="48" y="1536" type="line"/>
      <point x="337" y="1216" type="line"/>
    </contour>
  </outline>
</glyph>
<glyph name="a" format="2">
  <advance width="1087.7"/>
  <unicode hex="0061"/>
  <anchor x="459" y="27" name="bottom"/>
  <anchor x="1088" y="-407" name="bottom_dd"/>
  <anchor x="991" y="0" name="ogonek"/>
  <anchor x="689" y="1292" name="rhalfring"/>
  <anchor x="851" y="654" name="rhotichook"/>
  <anchor x="531" y="1290" name="top"/>
  <anchor x="1088" y="1290" name="top0315"/>
  <anchor x="1088" y="1600" name="top_dd"/>
  <outline>
    <contour>
      <point x="641" y="711" type="curve"/>
      <point x="641" y="291" type="line"/>
      <point x="641" y="179"/>
      <point x="656" y="71"/>
      <point x="690" y="0" type="curve"/>
      <point x="1050" y="0" type="line"/>
      <point x="1050" y="18" type="line"/>
      <point x="1020" y="72"/>
      <point x="1003" y="126"/>
      <point x="1003" y="282" type="curve" smooth="yes"/>
      <point x="1003" y="709" type="line"/>
      <point x="1003" y="971"/>
      <point x="807" y="1102"/>
      <point x="547" y="1102" type="curve" smooth="yes"/>
      <point x="254" y="1102"/>
      <point x="67" y="952"/>
      <point x="67" y="741" type="curve"/>
      <point x="427" y="741" type="line"/>
      <point x="427" y="814"/>
      <point x="461" y="842"/>
      <point x="528" y="842" type="curve" smooth="yes"/>
      <point x="611" y="842"/>
      <point x="641" y="791"/>
    </contour>
    <contour>
      <point x="686" y="469" type="line"/>
      <point x="684" y="665" type="line"/>
      <point x="550" y="665" type="line"/>
      <point x="199" y="665"/>
      <point x="41" y="531"/>
      <point x="41" y="308" type="curve" smooth="yes"/>
      <point x="41" y="112"/>
      <point x="212" y="-20"/>
      <point x="411" y="-20" type="curve" smooth="yes"/>
      <point x="609" y="-20"/>
      <point x="677" y="96"/>
      <point x="730" y="199" type="curve"/>
      <point x="653" y="350" type="line"/>
      <point x="658" y="311"/>
      <point x="600" y="244"/>
      <point x="498" y="244" type="curve" smooth="yes"/>
      <point x="443" y="244"/>
      <point x="402" y="276"/>
      <point x="402" y="326" type="curve" smooth="yes"/>
      <point x="402" y="394"/>
      <point x="433" y="469"/>
      <point x="547" y="469" type="curve"/>
    </contour>
  </outline>
</glyph>
<glyph name="f" format="2">
  <advance width="750.275"/>
  <unicode hex="0066"/>
  <anchor x="330" y="10" name="bottom"/>
  <anchor x="750" y="-407" name="bottom_dd"/>
  <anchor x="430" y="1646" name="top"/>
  <anchor x="750" y="1646" name="top0315"/>
  <anchor x="750" y="1600" name="top_dd"/>
  <outline>
    <contour>
      <point x="162" y="0" type="line"/>
      <point x="524" y="0" type="line"/>
      <point x="524" y="1162" type="line"/>
      <point x="524" y="1230"/>
      <point x="576" y="1268"/>
      <point x="670" y="1268" type="curve" smooth="yes"/>
      <point x="705" y="1268"/>
      <point x="728" y="1265"/>
      <point x="751" y="1259" type="curve"/>
      <point x="749" y="1535" type="line"/>
      <point x="699" y="1547"/>
      <point x="647" y="1557"/>
      <point x="587" y="1557" type="curve" smooth="yes"/>
      <point x="327" y="1557"/>
      <point x="162" y="1418"/>
      <point x="162" y="1162" type="curve"/>
    </contour>
    <contour>
      <point x="728" y="822" type="line"/>
      <point x="728" y="1082" type="line"/>
      <point x="8" y="1082" type="line"/>
      <point x="8" y="822" type="line"/>
    </contour>
  </outline>
</glyph>
<glyph name="h" format="2">
  <advance width="1159"/>
  <unicode hex="0068"/>
  <anchor x="580" y="10" name="bottom"/>
  <anchor x="1159" y="-407" name="bottom_dd"/>
  <anchor x="296" y="1301" name="cross"/>
  <anchor x="1073" y="0" name="right"/>
  <anchor x="541" y="1711" name="top"/>
  <anchor x="1159" y="1711" name="top0315"/>
  <anchor x="1159" y="1600" name="top_dd"/>
  <outline>
    <contour>
      <point x="441" y="0" type="line"/>
      <point x="441" y="1536" type="line"/>
      <point x="80" y="1536" type="line"/>
      <point x="80" y="0" type="line"/>
    </contour>
    <contour>
      <point x="316" y="567" type="curve"/>
      <point x="399" y="574" type="line"/>
      <point x="398" y="719"/>
      <point x="419" y="812"/>
      <point x="568" y="812" type="curve" smooth="yes"/>
      <point x="658" y="812"/>
      <point x="711" y="783"/>
      <point x="711" y="666" type="curve" smooth="yes"/>
      <point x="711" y="0" type="line"/>
      <point x="1073" y="0" type="line"/>
      <point x="1073" y="664" type="line" smooth="yes"/>
      <point x="1073" y="985"/>
      <point x="922" y="1102"/>
      <point x="708" y="1102" type="curve" smooth="yes"/>
      <point x="470" y="1102"/>
      <point x="314" y="878"/>
    </contour>
  </outline>
</glyph>
<glyph name="i" format="2">
  <advance width="574.775"/>
  <unicode hex="0069"/>
  <anchor x="287" y="10" name="bottom"/>
  <anchor x="575" y="-407" name="bottom_dd"/>
  <anchor x="407" y="0" name="ogonek"/>
  <anchor x="373" y="654" name="rhotichook"/>
  <anchor x="285" y="1600" name="top"/>
  <anchor x="575" y="1600" name="top0315"/>
  <anchor x="575" y="1600" name="top_dd"/>
  <outline>
    <contour>
      <point x="468" y="0" type="line"/>
      <point x="468" y="1082" type="line"/>
      <point x="107" y="1082" type="line"/>
      <point x="107" y="0" type="line"/>
    </contour>
    <contour>
      <point x="87" y="1462"/>
      <point x="87" y="1356" type="curve" smooth="yes"/>
      <point x="87" y="1250"/>
      <point x="168" y="1176"/>
      <point x="285" y="1176" type="curve"/>
      <point x="403" y="1176"/>
      <point x="483" y="1250"/>
      <point x="483" y="1356" type="curve"/>
      <point x="483" y="1462"/>
      <point x="403" y="1536"/>
      <point x="285" y="1536" type="curve"/>
      <point x="168" y="1536"/>
    </contour>
  </outline>
</glyph>
<glyph name="j" format="2">
  <advance width="562.45"/>
  <unicode hex="006A"/>
  <anchor x="190" y="-459" name="bottom"/>
  <anchor x="562" y="-407" name="bottom_dd"/>
  <anchor x="223" y="1600" name="top"/>
  <anchor x="562" y="1600" name="top0315"/>
  <anchor x="562" y="1600" name="top_dd"/>
  <outline>
    <contour>
      <point x="476" y="1082" type="line"/>
      <point x="114" y="1082" type="line"/>
      <point x="114" y="-14" type="line"/>
      <point x="114" y="-101"/>
      <point x="67" y="-144"/>
      <point x="-20" y="-144" type="curve" smooth="yes"/>
      <point x="-55" y="-144"/>
      <point x="-81" y="-140"/>
      <point x="-116" y="-135" type="curve"/>
      <point x="-115" y="-420" type="line"/>
      <point x="-55" y="-434"/>
      <point x="-10" y="-437"/>
      <point x="50" y="-437" type="curve" smooth="yes"/>
      <point x="313" y="-437"/>
      <point x="476" y="-288"/>
      <point x="476" y="-14" type="curve"/>
    </contour>
    <contour>
      <point x="89" y="1462"/>
      <point x="89" y="1356" type="curve" smooth="yes"/>
      <point x="89" y="1250"/>
      <point x="170" y="1176"/>
      <point x="287" y="1176" type="curve" smooth="yes"/>
      <point x="405" y="1176"/>
      <point x="485" y="1250"/>
      <point x="485" y="1356" type="curve" smooth="yes"/>
      <point x="485" y="1462"/>
      <point x="405" y="1536"/>
      <point x="287" y="1536" type="curve" smooth="yes"/>
      <point x="170" y="1536"/>
    </contour>
  </outline>
</glyph>
<glyph name="o" format="2">
  <advance width="1151.95"/>
  <unicode hex="006F"/>
  <anchor x="575" y="-12" name="bottom"/>
  <anchor x="1152" y="-407" name="bottom_dd"/>
  <anchor x="954" y="654" name="rhotichook"/>
  <anchor x="577" y="1290" name="top"/>
  <anchor x="1152" y="1290" name="top0315"/>
  <anchor x="1152" y="1600" name="top_dd"/>
  <outline>
    <contour>
      <point x="49" y="550" type="curve"/>
      <point x="49" y="531" type="line"/>
      <point x="49" y="214"/>
      <point x="232" y="-20"/>
      <point x="576" y="-20" type="curve" smooth="yes"/>
      <point x="920" y="-20"/>
      <point x="1101" y="214"/>
      <point x="1101" y="531" type="curve"/>
      <point x="1101" y="550" type="line"/>
      <point x="1101" y="867"/>
      <point x="920" y="1102"/>
      <point x="574" y="1102" type="curve" smooth="yes"/>
      <point x="232" y="1102"/>
      <point x="49" y="867"/>
    </contour>
    <contour>
      <point x="410" y="531" type="curve"/>
      <point x="410" y="550" type="line"/>
      <point x="410" y="693"/>
      <point x="442" y="812"/>
      <point x="574" y="812" type="curve" smooth="yes"/>
      <point x="710" y="812"/>
      <point x="741" y="693"/>
      <point x="741" y="550" type="curve"/>
      <point x="741" y="531" type="line"/>
      <point x="741" y="382"/>
      <point x="708" y="270"/>
      <point x="576" y="270" type="curve" smooth="yes"/>
      <point x="441" y="270"/>
      <point x="410" y="382"/>
    </contour>
  </outline>
</glyph>
<glyph name="q" format="2">
  <advance width="1153"/>
  <unicode hex="0071"/>
  <anchor x="890" y="-407" name="bottom"/>
  <anchor x="1153" y="-407" name="bottom_dd"/>
  <anchor x="537" y="1290" name="marktop"/>
  <anchor x="537" y="1290" name="top"/>
  <anchor x="1153" y="1290" name="top0315"/>
  <anchor x="1153" y="1600" name="top_dd"/>
  <outline>
    <contour>
      <point x="702" y="851" type="line"/>
      <point x="702" y="-416" type="line"/>
      <point x="1064" y="-416" type="line"/>
      <point x="1064" y="1082" type="line"/>
      <point x="753" y="1082" type="line"/>
    </contour>
    <contour>
      <point x="47" y="552" type="curve" smooth="yes"/>
      <point x="47" y="531" type="line"/>
      <point x="47" y="217"/>
      <point x="192" y="-20"/>
      <point x="466" y="-20" type="curve" smooth="yes"/>
      <point x="728" y="-20"/>
      <point x="826" y="245"/>
      <point x="872" y="541" type="curve"/>
      <point x="872" y="530" type="line"/>
      <point x="827" y="848"/>
      <point x="729" y="1102"/>
      <point x="468" y="1102" type="curve" smooth="yes"/>
      <point x="193" y="1102"/>
      <point x="47" y="880"/>
    </contour>
    <contour>
      <point x="407" y="531" type="curve" smooth="yes"/>
      <point x="407" y="552" type="line"/>
      <point x="407" y="705"/>
      <point x="444" y="812"/>
      <point x="561" y="812" type="curve" smooth="yes"/>
      <point x="694" y="812"/>
      <point x="737" y="737"/>
      <point x="730" y="553" type="curve"/>
      <point x="730" y="519" type="line"/>
      <point x="739" y="365"/>
      <point x="698" y="270"/>
      <point x="559" y="270" type="curve" smooth="yes"/>
      <point x="440" y="270"/>
      <point x="407" y="386"/>
    </contour>
  </outline>
</glyph>
<glyph name="r" format="2">
  <advance width="783.95"/>
  <unicode hex="0072"/>
  <anchor x="271" y="9" name="bottom"/>
  <anchor x="784" y="-407" name="bottom_dd"/>
  <anchor x="413" y="1290" name="top"/>
  <anchor x="784" y="1290" name="top0315"/>
  <anchor x="784" y="1600" name="top_dd"/>
  <outline>
    <contour>
      <point x="452" y="0" type="line"/>
      <point x="452" y="793" type="line"/>
      <point x="428" y="1082" type="line"/>
      <point x="92" y="1082" type="line"/>
      <point x="92" y="0" type="line"/>
    </contour>
    <contour>
      <point x="758" y="738" type="curve"/>
      <point x="764" y="1090" type="line"/>
      <point x="738" y="1099"/>
      <point x="702" y="1102"/>
      <point x="669" y="1102" type="curve"/>
      <point x="486" y="1102"/>
      <point x="369" y="906"/>
      <point x="369" y="612" type="curve"/>
      <point x="432" y="558" type="line"/>
      <point x="429" y="691"/>
      <point x="492" y="746"/>
      <point x="644" y="746" type="curve"/>
      <point x="673" y="746"/>
      <point x="730" y="740"/>
    </contour>
  </outline>
</glyph>
<glyph name="s" format="2">
  <advance width="1051.9"/>
  <unicode hex="0073"/>
  <anchor x="507" y="-10" name="bottom"/>
  <anchor x="1052" y="-407" name="bottom_dd"/>
  <anchor x="507" y="1290" name="top"/>
  <anchor x="1052" y="1290" name="top0315"/>
  <anchor x="1052" y="1600" name="top_dd"/>
  <outline>
    <contour>
      <point x="647" y="358"/>
      <point x="647" y="309" type="curve" smooth="yes"/>
      <point x="647" y="257"/>
      <point x="605" y="225"/>
      <point x="524" y="225" type="curve" smooth="yes"/>
      <point x="428" y="225"/>
      <point x="368" y="268"/>
      <point x="365" y="354" type="curve"/>
      <point x="29" y="354" type="line"/>
      <point x="29" y="180"/>
      <point x="198" y="-20"/>
      <point x="514" y="-20" type="curve" smooth="yes"/>
      <point x="808" y="-20"/>
      <point x="994" y="127"/>
      <point x="994" y="319" type="curve"/>
      <point x="994" y="561"/>
      <point x="786" y="634"/>
      <point x="572" y="670" type="curve" smooth="yes"/>
      <point x="458" y="688"/>
      <point x="404" y="720"/>
      <point x="404" y="771" type="curve"/>
      <point x="404" y="828"/>
      <point x="457" y="858"/>
      <point x="514" y="858" type="curve" smooth="yes"/>
      <point x="604" y="858"/>
      <point x="636" y="823"/>
      <point x="636" y="745" type="curve"/>
      <point x="996" y="745" type="line"/>
      <point x="996" y="958"/>
      <point x="811" y="1102"/>
      <point x="515" y="1102" type="curve" smooth="yes"/>
      <point x="227" y="1102"/>
      <point x="63" y="938"/>
      <point x="63" y="752" type="curve"/>
      <point x="63" y="559"/>
      <point x="235" y="457"/>
      <point x="444" y="412" type="curve" smooth="yes"/>
      <point x="603" y="377"/>
    </contour>
  </outline>
</glyph>
<glyph name="t" format="2">
  <advance width="708.1"/>
  <unicode hex="0074"/>
  <anchor x="421" y="0" name="bottom"/>
  <anchor x="708" y="-407" name="bottom_dd"/>
  <anchor x="638" y="1677" name="caron"/>
  <anchor x="322" y="582" name="cross"/>
  <anchor x="736" y="1262" name="marktop"/>
  <anchor x="351" y="1471" name="top"/>
  <anchor x="708" y="1471" name="top0315"/>
  <anchor x="708" y="1600" name="top_dd"/>
  <outline>
    <contour>
      <point x="676" y="822" type="line"/>
      <point x="676" y="1082" type="line"/>
      <point x="11" y="1082" type="line"/>
      <point x="11" y="822" type="line"/>
    </contour>
    <contour>
      <point x="503" y="1351" type="line"/>
      <point x="143" y="1351" type="line"/>
      <point x="143" y="321" type="line"/>
      <point x="143" y="82"/>
      <point x="270" y="-20"/>
      <point x="494" y="-20" type="curve" smooth="yes"/>
      <point x="568" y="-20"/>
      <point x="629" y="-10"/>
      <point x="690" y="11" type="curve"/>
      <point x="691" y="279" type="line"/>
      <point x="669" y="275"/>
      <point x="646" y="274"/>
      <point x="609" y="274" type="curve" smooth="yes"/>
      <point x="526" y="274"/>
      <point x="503" y="297"/>
      <point x="503" y="373" type="curve"/>
    </contour>
  </outline>
</glyph>
<glyph name="w" format="2">
  <advance width="1481.975"/>
  <unicode hex="0077"/>
  <anchor x="744" y="10" name="bottom"/>
  <anchor x="1482" y="-407" name="bottom_dd"/>
  <anchor x="741" y="1290" name="marktop"/>
  <anchor x="741" y="1290" name="top"/>
  <anchor x="1482" y="1290" name="top0315"/>
  <anchor x="1482" y="1600" name="top_dd"/>
  <outline>
    <contour>
      <point x="614" y="1082" type="line"/>
      <point x="419" y="344" type="line"/>
      <point x="392" y="0" type="line"/>
      <point x="571" y="0" type="line"/>
      <point x="763" y="661" type="line"/>
      <point x="838" y="1082" type="line"/>
    </contour>
    <contour>
      <point x="477" y="353" type="line"/>
      <point x="362" y="1082" type="line"/>
      <point x="17" y="1082" type="line"/>
      <point x="268" y="0" type="line"/>
      <point x="485" y="0" type="line"/>
    </contour>
    <contour>
      <point x="1117" y="1082" type="line"/>
      <point x="1000" y="371" type="line"/>
      <point x="994" y="0" type="line"/>
      <point x="1212" y="0" type="line"/>
      <point x="1461" y="1082" type="line"/>
    </contour>
    <contour>
      <point x="1062" y="344" type="line"/>
      <point x="864" y="1082" type="line"/>
      <point x="647" y="1082" type="line"/>
      <point x="720" y="658" type="line"/>
      <point x="907" y="0" type="line"/>
      <point x="1088" y="0" type="line"/>
    </contour>
  </outline>
</glyph>
<glyph name="x" format="2">
  <advance width="1061.125"/>
  <unicode hex="0078"/>
  <anchor x="533" y="10" name="bottom"/>
  <anchor x="1061" y="-407" name="bottom_dd"/>
  <anchor x="537" y="551" name="cross"/>
  <anchor x="868" y="0" name="right"/>
  <anchor x="535" y="1280" name="top"/>
  <anchor x="1061" y="1280" name="top0315"/>
  <anchor x="1061" y="1600" name="top_dd"/>
  <outline>
    <contour>
      <point x="537" y="811" type="line"/>
      <point x="401" y="1082" type="line"/>
      <point x="24" y="1082" type="line"/>
      <point x="299" y="556" type="line"/>
      <point x="8" y="0" type="line"/>
      <point x="385" y="0" type="line"/>
      <point x="536" y="294" type="line"/>
      <point x="690" y="0" type="line"/>
      <point x="1066" y="0" type="line"/>
      <point x="775" y="556" type="line"/>
      <point x="1052" y="1082" type="line"/>
      <point x="679" y="1082" type="line"/>
    </contour>
  </outline>
</glyph>
<glyph name="y" format="2">
  <advance width="1068.925"/>
  <unicode hex="0079"/>
  <anchor x="853" y="-77" name="bottom"/>
  <anchor x="1069" y="-407" name="bottom_dd"/>
  <anchor x="529" y="1290" name="marktop"/>
  <anchor x="835" y="654" name="rhotichook"/>
  <anchor x="529" y="1290" name="top"/>
  <anchor x="1069" y="1290" name="top0315"/>
  <anchor x="1069" y="1600" name="top_dd"/>
  <outline>
    <contour>
      <point x="694" y="1082" type="line"/>
      <point x="420" y="131" type="line"/>
      <point x="340" y="-74" type="line" smooth="yes"/>
      <point x="322" y="-119"/>
      <point x="288" y="-147"/>
      <point x="182" y="-147" type="curve" smooth="yes"/>
      <point x="166" y="-147"/>
      <point x="157" y="-148"/>
      <point x="141" y="-148" type="curve"/>
      <point x="141" y="-416" type="line"/>
      <point x="205" y="-433"/>
      <point x="216" y="-437"/>
      <point x="285" y="-437" type="curve" smooth="yes"/>
      <point x="536" y="-437"/>
      <point x="611" y="-269"/>
      <point x="649" y="-159" type="curve" smooth="yes"/>
      <point x="1080" y="1082" type="line"/>
    </contour>
    <contour>
      <point x="575" y="355" type="line"/>
      <point x="377" y="1082" type="line"/>
      <point x="-9" y="1082" type="line"/>
      <point x="372" y="-34" type="line"/>
      <point x="612" y="-47" type="line"/>
    </contour>
  </outline>
</glyph>
<glyph name="braceleft" format="2">
  <advance width="665.475"/>
  <unicode hex="007B"/>
  <outline>
    <contour>
      <point x="623" y="1403" type="curve"/>
      <point x="555" y="1597" type="line"/>
      <point x="278" y="1520"/>
      <point x="192" y="1342"/>
      <point x="192" y="1132" type="curve"/>
      <point x="192" y="932" type="line"/>
      <point x="192" y="819"/>
      <point x="147" y="747"/>
      <point x="38" y="747" type="curve"/>
      <point x="38" y="566" type="line"/>
      <point x="367" y="566"/>
      <point x="504" y="728"/>
      <point x="504" y="932" type="curve"/>
      <point x="504" y="1132" type="line"/>
      <point x="504" y="1260"/>
      <point x="527" y="1365"/>
    </contour>
    <contour>
      <point x="555" y="-354" type="curve"/>
      <point x="623" y="-159" type="line"/>
      <point x="527" y="-121"/>
      <point x="504" y="-15"/>
      <point x="504" y="112" type="curve" smooth="yes"/>
      <point x="504" y="312" type="line" smooth="yes"/>
      <point x="504" y="517"/>
      <point x="367" y="678"/>
      <point x="38" y="678" type="curve"/>
      <point x="38" y="496" type="line"/>
      <point x="147" y="496"/>
      <point x="192" y="424"/>
      <point x="192" y="312" type="curve" smooth="yes"/>
      <point x="192" y="112" type="line" smooth="yes"/>
      <point x="192" y="-98"/>
      <point x="278" y="-277"/>
    </contour>
  </outline>
</glyph>
<glyph name="cent" format="2">
  <advance width="1218.45"/>
  <unicode hex="00A2"/>
  <outline>
    <contour>
      <point x="719" y="1023" type="line"/>
      <point x="719" y="1318" type="line"/>
      <point x="508" y="1318" type="line"/>
      <point x="508" y="1023" type="line"/>
    </contour>
    <contour>
      <point x="719" y="-245" type="line"/>
      <point x="719" y="49" type="line"/>
      <point x="508" y="49" type="line"/>
      <point x="508" y="-245" type="line"/>
    </contour>
    <component base="c" xOffset="47"/>
  </outline>
</glyph>
<glyph name="brokenbar" format="2">
  <advance width="534.3"/>
  <unicode hex="00A6"/>
  <outline>
    <contour>
      <point x="115" y="-270" type="line"/>
      <point x="426" y="-270" type="line"/>
      <point x="426" y="528" type="line"/>
      <point x="115" y="528" type="line"/>
    </contour>
    <contour>
      <point x="426" y="698" type="line"/>
      <point x="426" y="1456" type="line"/>
      <point x="115" y="1456" type="line"/>
      <point x="115" y="698" type="line"/>
    </contour>
  </outline>
</glyph>
<glyph name="section" format="2">
  <advance width="1308.1"/>
  <unicode hex="00A7"/>
  <outline>
    <contour>
      <point x="666" y="320" type="curve"/>
      <point x="666" y="158" type="line"/>
      <point x="992" y="158"/>
      <point x="1204" y="273"/>
      <point x="1204" y="516" type="curve"/>
      <point x="1204" y="753"/>
      <point x="1028" y="862"/>
      <point x="716" y="938" type="curve" smooth="yes"/>
      <point x="512" y="989"/>
      <point x="468" y="1015"/>
      <point x="468" y="1086" type="curve"/>
      <point x="468" y="1142"/>
      <point x="519" y="1185"/>
      <point x="647" y="1185" type="curve" smooth="yes"/>
      <point x="766" y="1185"/>
      <point x="824" y="1128"/>
      <point x="824" y="1052" type="curve"/>
      <point x="1185" y="1052" type="line"/>
      <point x="1185" y="1325"/>
      <point x="980" y="1476"/>
      <point x="647" y="1476" type="curve" smooth="yes"/>
      <point x="319" y="1476"/>
      <point x="106" y="1322"/>
      <point x="106" y="1084" type="curve"/>
      <point x="106" y="822"/>
      <point x="293" y="727"/>
      <point x="598" y="639" type="curve" smooth="yes"/>
      <point x="793" y="581"/>
      <point x="850" y="541"/>
      <point x="850" y="470" type="curve"/>
      <point x="850" y="380"/>
      <point x="782" y="320"/>
    </contour>
    <contour>
      <point x="615" y="716" type="curve"/>
      <point x="615" y="882" type="line"/>
      <point x="299" y="882"/>
      <point x="92" y="757"/>
      <point x="92" y="523" type="curve" smooth="yes"/>
      <point x="92" y="286"/>
      <point x="274" y="182"/>
      <point x="577" y="103" type="curve"/>
      <point x="774" y="50"/>
      <point x="830" y="16"/>
      <point x="830" y="-45" type="curve" smooth="yes"/>
      <point x="830" y="-105"/>
      <point x="770" y="-132"/>
      <point x="653" y="-132" type="curve" smooth="yes"/>
      <point x="553" y="-132"/>
      <point x="454" y="-121"/>
      <point x="454" y="-17" type="curve"/>
      <point x="93" y="-16" type="line"/>
      <point x="93" y="-334"/>
      <point x="373" y="-424"/>
      <point x="653" y="-424" type="curve" smooth="yes"/>
      <point x="977" y="-424"/>
      <point x="1190" y="-292"/>
      <point x="1190" y="-45" type="curve" smooth="yes"/>
      <point x="1190" y="219"/>
      <point x="1013" y="317"/>
      <point x="697" y="400" type="curve" smooth="yes"/>
      <point x="495" y="462"/>
      <point x="452" y="489"/>
      <point x="452" y="571" type="curve" smooth="yes"/>
      <point x="452" y="656"/>
      <point x="500" y="716"/>
    </contour>
  </outline>
</glyph>
<glyph name="logicalnot" format="2">
  <advance width="1126.075"/>
  <unicode hex="00AC"/>
  <outline>
    <contour>
      <point x="964" y="629" type="line"/>
      <point x="964" y="809" type="line"/>
      <point x="126" y="809" type="line"/>
      <point x="126" y="629" type="line"/>
    </contour>
    <contour>
      <point x="964" y="372" type="line"/>
      <point x="964" y="730" type="line"/>
      <point x="753" y="730" type="line"/>
      <point x="753" y="372" type="line"/>
    </contour>
  </outline>
</glyph>
<glyph name="registered" format="2">
  <advance width="1603.8"/>
  <unicode hex="00AE"/>
  <outline>
    <contour>
      <point x="605" y="651" type="line"/>
      <point x="816" y="651" type="line"/>
      <point x="855" y="651"/>
      <point x="836" y="651"/>
      <point x="871" y="672" type="curve" smooth="yes"/>
      <point x="875" y="672"/>
      <point x="880" y="687"/>
      <point x="884" y="687" type="curve" smooth="yes"/>
      <point x="1027" y="725"/>
      <point x="1106" y="792"/>
      <point x="1106" y="900" type="curve"/>
      <point x="1106" y="1073"/>
      <point x="976" y="1167"/>
      <point x="778" y="1167" type="curve"/>
      <point x="494" y="1167" type="line"/>
      <point x="494" y="315" type="line"/>
      <point x="652" y="315" type="line"/>
      <point x="652" y="1028" type="line"/>
      <point x="778" y="1028" type="line"/>
      <point x="904" y="1028"/>
      <point x="949" y="997"/>
      <point x="949" y="902" type="curve"/>
      <point x="949" y="828"/>
      <point x="866" y="791"/>
      <point x="773" y="791" type="curve"/>
      <point x="603" y="791" type="line"/>
    </contour>
    <contour>
      <point x="828" y="775" type="curve"/>
      <point x="806" y="651" type="line"/>
      <point x="908" y="651"/>
      <point x="946" y="606"/>
      <point x="946" y="515" type="curve"/>
      <point x="946" y="459" type="line"/>
      <point x="946" y="430"/>
      <point x="946" y="349"/>
      <point x="959" y="315" type="curve"/>
      <point x="1121" y="315" type="line"/>
      <point x="1121" y="331" type="line"/>
      <point x="1108" y="361"/>
      <point x="1104" y="408"/>
      <point x="1104" y="458" type="curve"/>
      <point x="1104" y="516" type="line"/>
      <point x="1104" y="666"/>
      <point x="1039" y="775"/>
    </contour>
    <contour>
      <point x="211" y="379"/>
      <point x="211" y="729" type="curve" smooth="yes"/>
      <point x="211" y="1079"/>
      <point x="471" y="1346"/>
      <point x="794" y="1346" type="curve" smooth="yes"/>
      <point x="1115" y="1346"/>
      <point x="1376" y="1079"/>
      <point x="1376" y="729" type="curve" smooth="yes"/>
      <point x="1376" y="379"/>
      <point x="1115" y="110"/>
      <point x="794" y="110" type="curve" smooth="yes"/>
      <point x="471" y="110"/>
    </contour>
    <contour>
      <point x="84" y="1152"/>
      <point x="84" y="729" type="curve" smooth="yes"/>
      <point x="84" y="306"/>
      <point x="402" y="-20"/>
      <point x="794" y="-20" type="curve" smooth="yes"/>
      <point x="1184" y="-20"/>
      <point x="1504" y="306"/>
      <point x="1504" y="729" type="curve" smooth="yes"/>
      <point x="1504" y="1152"/>
      <point x="1184" y="1476"/>
      <point x="794" y="1476" type="curve" smooth="yes"/>
      <point x="402" y="1476"/>
    </contour>
  </outline>
</glyph>
<glyph name="plusminus" format="2">
  <advance width="1104.625"/>
  <unicode hex="00B1"/>
  <outline>
    <contour>
      <point x="1001" y="700" type="line"/>
      <point x="1001" y="1004" type="line"/>
      <point x="85" y="1004" type="line"/>
      <point x="85" y="700" type="line"/>
    </contour>
    <contour>
      <point x="698" y="370" type="line"/>
      <point x="698" y="1299" type="line"/>
      <point x="384" y="1299" type="line"/>
      <point x="384" y="370" type="line"/>
    </contour>
    <component base="minus" xOffset="-34" yOffset="-556"/>
  </outline>
</glyph>
<glyph name="paragraph" format="2">
  <advance width="1005.3"/>
  <unicode hex="00B6"/>
  <outline>
    <contour>
      <point x="653" y="0" type="line"/>
      <point x="895" y="0" type="line"/>
      <point x="895" y="1456" type="line"/>
      <point x="573" y="1456" type="line" smooth="yes"/>
      <point x="255" y="1456"/>
      <point x="81" y="1256"/>
      <point x="81" y="988" type="curve" smooth="yes"/>
      <point x="81" y="718"/>
      <point x="255" y="520"/>
      <point x="573" y="520" type="curve" smooth="yes"/>
      <point x="653" y="520" type="line"/>
    </contour>
  </outline>
</glyph>
<glyph name="Thorn" format="2">
  <advance width="1270.725"/>
  <unicode hex="00DE"/>
  <outline>
    <contour>
      <point x="472" y="1456" type="line"/>
      <point x="110" y="1456" type="line"/>
      <point x="110" y="0" type="line"/>
      <point x="472" y="0" type="line"/>
    </contour>
    <contour>
      <point x="656" y="1207" type="curve" smooth="yes"/>
      <point x="218" y="1207" type="line"/>
      <point x="473" y="917" type="line"/>
      <point x="656" y="917" type="line" smooth="yes"/>
      <point x="806" y="917"/>
      <point x="864" y="832"/>
      <point x="864" y="736" type="curve" smooth="yes"/>
      <point x="864" y="641"/>
      <point x="806" y="559"/>
      <point x="656" y="559" type="curve" smooth="yes"/>
      <point x="431" y="559" type="line"/>
      <point x="431" y="269" type="line"/>
      <point x="656" y="269" type="line" smooth="yes"/>
      <point x="1025" y="269"/>
      <point x="1226" y="464"/>
      <point x="1226" y="738" type="curve" smooth="yes"/>
      <point x="1226" y="1013"/>
      <point x="1025" y="1207"/>
    </contour>
  </outline>
</glyph>
<glyph name="eth" format="2">
  <advance width="1164.075"/>
  <unicode hex="00F0"/>
  <outline>
    <contour>
      <point x="333" y="1579" type="curve"/>
      <point x="218" y="1309" type="line"/>
      <point x="493" y="1240"/>
      <point x="769" y="1048"/>
      <point x="769" y="664" type="curve" smooth="yes"/>
      <point x="769" y="557" type="line" smooth="yes"/>
      <point x="769" y="393"/>
      <point x="711" y="270"/>
      <point x="581" y="270" type="curve" smooth="yes"/>
      <point x="478" y="270"/>
      <point x="416" y="347"/>
      <point x="416" y="468" type="curve"/>
      <point x="416" y="609"/>
      <point x="471" y="692"/>
      <point x="591" y="692" type="curve"/>
      <point x="736" y="692"/>
      <point x="805" y="627"/>
      <point x="805" y="575" type="curve"/>
      <point x="931" y="572" type="line"/>
      <point x="906" y="807"/>
      <point x="737" y="959"/>
      <point x="511" y="959" type="curve"/>
      <point x="210" y="959"/>
      <point x="56" y="761"/>
      <point x="56" y="468" type="curve"/>
      <point x="56" y="196"/>
      <point x="263" y="-20"/>
      <point x="577" y="-20" type="curve" smooth="yes"/>
      <point x="895" y="-20"/>
      <point x="1131" y="234"/>
      <point x="1131" y="606" type="curve"/>
      <point x="1131" y="662" type="line"/>
      <point x="1131" y="1149"/>
      <point x="797" y="1492"/>
    </contour>
    <contour>
      <point x="404" y="1019" type="line"/>
      <point x="989" y="1379" type="line"/>
      <point x="909" y="1505" type="line"/>
      <point x="322" y="1144" type="line"/>
    </contour>
  </outline>
</glyph>
<glyph name="divide" format="2">
  <advance width="1167"/>
  <unicode hex="00F7"/>
  <outline>
    <contour>
      <point x="1107" y="549" type="line"/>
      <point x="1107" y="815" type="line"/>
      <point x="59" y="815" type="line"/>
      <point x="59" y="549" type="line"/>
    </contour>
    <contour>
      <point x="383" y="1190"/>
      <point x="383" y="1084" type="curve" smooth="yes"/>
      <point x="383" y="979"/>
      <point x="464" y="905"/>
      <point x="580" y="905" type="curve" smooth="yes"/>
      <point x="697" y="905"/>
      <point x="777" y="979"/>
      <point x="777" y="1084" type="curve" smooth="yes"/>
      <point x="777" y="1190"/>
      <point x="697" y="1264"/>
      <point x="580" y="1264" type="curve" smooth="yes"/>
      <point x="464" y="1264"/>
    </contour>
    <contour>
      <point x="383" y="380"/>
      <point x="383" y="275" type="curve" smooth="yes"/>
      <point x="383" y="169"/>
      <point x="464" y="95"/>
      <point x="580" y="95" type="curve" smooth="yes"/>
      <point x="697" y="95"/>
      <point x="777" y="169"/>
      <point x="777" y="275" type="curve" smooth="yes"/>
      <point x="777" y="380"/>
      <point x="697" y="454"/>
      <point x="580" y="454" type="curve" smooth="yes"/>
      <point x="464" y="454"/>
    </contour>
  </outline>
</glyph>
<glyph name="oslash" format="2">
  <advance width="1153.6"/>
  <unicode hex="00F8"/>
  <anchor x="541" y="1283" name="top"/>
  <anchor x="1154" y="1283" name="top0315"/>
  <anchor x="1154" y="1600" name="top_dd"/>
  <outline>
    <contour>
      <point x="339" y="-147" type="line"/>
      <point x="1002" y="1221" type="line"/>
      <point x="815" y="1221" type="line"/>
      <point x="152" y="-147" type="line"/>
    </contour>
    <component base="o"/>
  </outline>
</glyph>
<glyph name="oe" format="2">
  <advance width="1839.1"/>
  <unicode hex="0153"/>
  <anchor x="916" y="-12" name="bottom"/>
  <anchor x="1839" y="-407" name="bottom_dd"/>
  <anchor x="916" y="1290" name="top"/>
  <anchor x="1839" y="1290" name="top0315"/>
  <anchor x="1839" y="1600" name="top_dd"/>
  <outline>
    <contour>
      <point x="977" y="-20"/>
      <point x="1309" y="-20" type="curve"/>
      <point x="1493" y="-20"/>
      <point x="1652" y="37"/>
      <point x="1738" y="98" type="curve"/>
      <point x="1654" y="327" type="line"/>
      <point x="1562" y="295"/>
      <point x="1500" y="271"/>
      <point x="1359" y="271" type="curve" smooth="yes"/>
      <point x="1205" y="271"/>
      <point x="1139" y="382"/>
      <point x="1139" y="503" type="curve" smooth="yes"/>
      <point x="1139" y="538" type="line" smooth="yes"/>
      <point x="1139" y="684"/>
      <point x="1160" y="812"/>
      <point x="1283" y="812" type="curve"/>
      <point x="1372" y="812"/>
      <point x="1406" y="766"/>
      <point x="1406" y="672" type="curve"/>
      <point x="1406" y="646" type="line"/>
      <point x="914" y="646" type="line"/>
      <point x="914" y="416" type="line"/>
      <point x="1758" y="416" type="line"/>
      <point x="1758" y="608" type="line" smooth="yes"/>
      <point x="1758" y="913"/>
      <point x="1582" y="1102"/>
      <point x="1283" y="1102" type="curve" smooth="yes"/>
      <point x="944" y="1104"/>
      <point x="779" y="854"/>
      <point x="779" y="538" type="curve" smooth="yes"/>
      <point x="779" y="503" type="line" smooth="yes"/>
      <point x="779" y="214"/>
    </contour>
    <contour>
      <point x="74" y="550" type="curve"/>
      <point x="74" y="531" type="line"/>
      <point x="74" y="214"/>
      <point x="258" y="-20"/>
      <point x="603" y="-20" type="curve" smooth="yes"/>
      <point x="946" y="-20"/>
      <point x="1129" y="214"/>
      <point x="1129" y="531" type="curve"/>
      <point x="1129" y="550" type="line"/>
      <point x="1129" y="867"/>
      <point x="946" y="1102"/>
      <point x="601" y="1102" type="curve" smooth="yes"/>
      <point x="258" y="1102"/>
      <point x="74" y="867"/>
    </contour>
    <contour>
      <point x="434" y="531" type="curve"/>
      <point x="434" y="550" type="line"/>
      <point x="434" y="693"/>
      <point x="469" y="812"/>
      <point x="601" y="812" type="curve" smooth="yes"/>
      <point x="736" y="812"/>
      <point x="769" y="693"/>
      <point x="769" y="550" type="curve"/>
      <point x="769" y="531" type="line"/>
      <point x="769" y="382"/>
      <point x="735" y="271"/>
      <point x="603" y="271" type="curve" smooth="yes"/>
      <point x="467" y="271"/>
      <point x="434" y="382"/>
    </contour>
  </outline>
</glyph>
<glyph name="longs" format="2">
  <advance width="548.475"/>
  <unicode hex="017F"/>
  <anchor x="288" y="10" name="bottom"/>
  <anchor x="359" y="1646" name="top"/>
  <anchor x="548" y="1646" name="top0315"/>
  <outline>
    <contour>
      <point x="88" y="0" type="line"/>
      <point x="448" y="0" type="line"/>
      <point x="448" y="1162" type="line" smooth="yes"/>
      <point x="448" y="1230"/>
      <point x="493" y="1267"/>
      <point x="573" y="1267" type="curve" smooth="yes"/>
      <point x="617" y="1267"/>
      <point x="641" y="1263"/>
      <point x="673" y="1257" type="curve"/>
      <point x="698" y="1536" type="line"/>
      <point x="640" y="1548"/>
      <point x="585" y="1557"/>
      <point x="527" y="1557" type="curve" smooth="yes"/>
      <point x="250" y="1557"/>
      <point x="88" y="1418"/>
      <point x="88" y="1162" type="curve" smooth="yes"/>
    </contour>
  </outline>
</glyph>
<glyph name="ring" format="2">
  <advance width="680.825"/>
  <unicode hex="02DA"/>
  <outline>
    <contour>
      <point x="119" y="1380"/>
      <point x="119" y="1270" type="curve"/>
      <point x="119" y="1160"/>
      <point x="214" y="1070"/>
      <point x="348" y="1070" type="curve" smooth="yes"/>
      <point x="481" y="1070"/>
      <point x="576" y="1160"/>
      <point x="576" y="1270" type="curve" smooth="yes"/>
      <point x="576" y="1380"/>
      <point x="481" y="1474"/>
      <point x="348" y="1474" type="curve" smooth="yes"/>
      <point x="214" y="1474"/>
    </contour>
    <contour>
      <point x="245" y="1213"/>
      <point x="245" y="1270" type="curve"/>
      <point x="245" y="1326"/>
      <point x="283" y="1373"/>
      <point x="348" y="1373" type="curve" smooth="yes"/>
      <point x="412" y="1373"/>
      <point x="450" y="1326"/>
      <point x="450" y="1270" type="curve" smooth="yes"/>
      <point x="450" y="1213"/>
      <point x="412" y="1168"/>
      <point x="348" y="1168" type="curve" smooth="yes"/>
      <point x="283" y="1168"/>
    </contour>
  </outline>
</glyph>
<glyph name="gravecomb" format="2">
  <unicode hex="0300"/>
  <anchor x="-549" y="1290" name="_marktop"/>
  <anchor x="-549" y="1290" name="_top"/>
  <anchor x="-549" y="1683" name="mkmktop"/>
  <anchor x="-634" y="1376" name="parent_top"/>
  <outline>
    <contour>
      <point x="-344" y="1216" type="line"/>
      <point x="-544" y="1536" type="line"/>
      <point x="-924" y="1536" type="line"/>
      <point x="-635" y="1216" type="line"/>
    </contour>
  </outline>
</glyph>
<glyph name="acutecomb" format="2">
  <unicode hex="0301"/>
  <anchor x="-522" y="1290" name="_marktop"/>
  <anchor x="-522" y="1290" name="_top"/>
  <anchor x="-522" y="1683" name="mkmktop"/>
  <anchor x="-411" y="1376" name="parent_top"/>
  <outline>
    <contour>
      <point x="-502" y="1536" type="line"/>
      <point x="-700" y="1216" type="line"/>
      <point x="-407" y="1216" type="line"/>
      <point x="-123" y="1536" type="line"/>
    </contour>
  </outline>
</glyph>
<glyph name="shevahebrew" format="2">
  <unicode hex="05B0"/>
  <anchor x="651" y="0" name="_bottom"/>
  <outline>
    <contour>
      <point x="652" y="-353" type="curve" smooth="yes"/>
      <point x="717" y="-353"/>
      <point x="764" y="-311"/>
      <point x="764" y="-253" type="curve" smooth="yes"/>
      <point x="764" y="-195"/>
      <point x="717" y="-153"/>
      <point x="652" y="-153" type="curve" smooth="yes"/>
      <point x="586" y="-153"/>
      <point x="538" y="-195"/>
      <point x="538" y="-253" type="curve" smooth="yes"/>
      <point x="538" y="-311"/>
      <point x="587" y="-353"/>
    </contour>
    <contour>
      <point x="652" y="-647" type="curve" smooth="yes"/>
      <point x="717" y="-647"/>
      <point x="764" y="-604"/>
      <point x="764" y="-547" type="curve" smooth="yes"/>
      <point x="764" y="-489"/>
      <point x="717" y="-447"/>
      <point x="652" y="-447" type="curve" smooth="yes"/>
      <point x="587" y="-447"/>
      <point x="538" y="-489"/>
      <point x="538" y="-547" type="curve" smooth="yes"/>
      <point x="538" y="-604"/>
      <point x="587" y="-647"/>
    </contour>
  </outline>
</glyph>
<glyph name="hiriqhebrew" format="2">
  <unicode hex="05B4"/>
  <anchor x="651" y="0" name="_bottom"/>
  <outline>
    <contour>
      <point x="652" y="-353" type="curve" smooth="yes"/>
      <point x="717" y="-353"/>
      <point x="764" y="-311"/>
      <point x="764" y="-253" type="curve" smooth="yes"/>
      <point x="764" y="-195"/>
      <point x="717" y="-153"/>
      <point x="652" y="-153" type="curve" smooth="yes"/>
      <point x="586" y="-153"/>
      <point x="538" y="-195"/>
      <point x="538" y="-253" type="curve" smooth="yes"/>
      <point x="538" y="-312"/>
      <point x="587" y="-353"/>
    </contour>
  </outline>
</glyph>
<glyph name="segolhebrew" format="2">
  <unicode hex="05B6"/>
  <anchor x="651" y="0" name="_bottom"/>
  <outline>
    <contour>
      <point x="802" y="-353" type="curve" smooth="yes"/>
      <point x="867" y="-353"/>
      <point x="914" y="-311"/>
      <point x="914" y="-253" type="curve" smooth="yes"/>
      <point x="914" y="-195"/>
      <point x="867" y="-153"/>
      <point x="802" y="-153" type="curve" smooth="yes"/>
      <point x="736" y="-153"/>
      <point x="688" y="-195"/>
      <point x="688" y="-253" type="curve" smooth="yes"/>
      <point x="688" y="-312"/>
      <point x="737" y="-353"/>
    </contour>
    <contour>
      <point x="652" y="-605" type="curve" smooth="yes"/>
      <point x="717" y="-605"/>
      <point x="764" y="-564"/>
      <point x="764" y="-506" type="curve" smooth="yes"/>
      <point x="764" y="-448"/>
      <point x="717" y="-405"/>
      <point x="652" y="-405" type="curve" smooth="yes"/>
      <point x="587" y="-405"/>
      <point x="538" y="-448"/>
      <point x="538" y="-506" type="curve" smooth="yes"/>
      <point x="538" y="-564"/>
      <point x="587" y="-605"/>
    </contour>
    <contour>
      <point x="501" y="-353" type="curve" smooth="yes"/>
      <point x="566" y="-353"/>
      <point x="613" y="-311"/>
      <point x="613" y="-253" type="curve" smooth="yes"/>
      <point x="613" y="-195"/>
      <point x="566" y="-153"/>
      <point x="501" y="-153" type="curve" smooth="yes"/>
      <point x="435" y="-153"/>
      <point x="387" y="-195"/>
      <point x="387" y="-253" type="curve" smooth="yes"/>
      <point x="387" y="-312"/>
      <point x="436" y="-353"/>
    </contour>
  </outline>
</glyph>
<glyph name="qamatshebrew" format="2">
  <unicode hex="05B8"/>
  <anchor x="651" y="0" name="_bottom"/>
  <outline>
    <contour>
      <point x="651" y="-612" type="curve" smooth="yes"/>
      <point x="717" y="-612"/>
      <point x="764" y="-570"/>
      <point x="764" y="-513" type="curve" smooth="yes"/>
      <point x="764" y="-452"/>
      <point x="708" y="-438"/>
      <point x="695" y="-328" type="curve"/>
      <point x="875" y="-328" type="line"/>
      <point x="875" y="-176" type="line"/>
      <point x="428" y="-176" type="line"/>
      <point x="428" y="-328" type="line"/>
      <point x="606" y="-328" type="line"/>
      <point x="594" y="-438"/>
      <point x="538" y="-452"/>
      <point x="538" y="-513" type="curve" smooth="yes"/>
      <point x="538" y="-571"/>
      <point x="587" y="-612"/>
    </contour>
  </outline>
</glyph>
<glyph name="holamhaserhebrew" format="2">
  <unicode hex="05BA"/>
  <anchor x="324" y="1210" name="_topleft"/>
  <outline>
    <contour>
      <point x="324" y="1363" type="curve" smooth="yes"/>
      <point x="390" y="1363"/>
      <point x="437" y="1404"/>
      <point x="437" y="1462" type="curve" smooth="yes"/>
      <point x="437" y="1520"/>
      <point x="390" y="1563"/>
      <point x="324" y="1563" type="curve" smooth="yes"/>
      <point x="259" y="1563"/>
      <point x="210" y="1520"/>
      <point x="210" y="1462" type="curve" smooth="yes"/>
      <point x="210" y="1404"/>
      <point x="259" y="1363"/>
    </contour>
  </outline>
</glyph>
<glyph name="dageshhebrew" format="2">
  <unicode hex="05BC"/>
  <anchor x="343" y="604" name="_center"/>
  <outline>
    <contour>
      <point x="343" y="505" type="curve" smooth="yes"/>
      <point x="409" y="505"/>
      <point x="456" y="547"/>
      <point x="456" y="604" type="curve" smooth="yes"/>
      <point x="456" y="663"/>
      <point x="409" y="704"/>
      <point x="343" y="704" type="curve" smooth="yes"/>
      <point x="278" y="704"/>
      <point x="229" y="663"/>
      <point x="229" y="604" type="curve" smooth="yes"/>
      <point x="229" y="546"/>
      <point x="278" y="505"/>
    </contour>
  </outline>
</glyph>
<glyph name="alefhebrew" format="2">
  <advance width="1408.525"/>
  <unicode hex="05D0"/>
  <anchor x="706" y="0" name="bottom"/>
  <anchor x="642" y="133" name="center"/>
  <anchor x="711" y="1210" name="top"/>
  <anchor x="30" y="1210" name="topleft"/>
  <outline>
    <contour>
      <point x="908" y="0" type="line"/>
      <point x="1329" y="0" type="line"/>
      <point x="509" y="1210" type="line"/>
      <point x="87" y="1210" type="line"/>
    </contour>
    <contour>
      <point x="139" y="0" type="line"/>
      <point x="504" y="0" type="line"/>
      <point x="504" y="551" type="line" smooth="yes"/>
      <point x="504" y="595"/>
      <point x="517" y="621"/>
      <point x="551" y="653" type="curve"/>
      <point x="421" y="841" type="line"/>
      <point x="218" y="770"/>
      <point x="139" y="641"/>
      <point x="139" y="382" type="curve" smooth="yes"/>
    </contour>
    <contour>
      <point x="1345" y="1210" type="line"/>
      <point x="921" y="1210" type="line"/>
      <point x="711" y="730" type="line"/>
      <point x="955" y="429" type="line"/>
    </contour>
  </outline>
</glyph>
<glyph name="bethebrew" format="2">
  <advance width="1132.525"/>
  <unicode hex="05D1"/>
  <anchor x="583" y="0" name="bottom"/>
  <anchor x="331" y="603" name="center"/>
  <anchor x="522" y="1210" name="top"/>
  <anchor x="12" y="1210" name="topleft"/>
  <outline>
    <contour>
      <point x="48" y="0" type="line"/>
      <point x="1112" y="0" type="line"/>
      <point x="1112" y="281" type="line"/>
      <point x="974" y="304" type="line"/>
      <point x="595" y="293" type="line"/>
      <point x="48" y="293" type="line"/>
    </contour>
    <contour>
      <point x="595" y="88" type="line"/>
      <point x="974" y="88" type="line"/>
      <point x="974" y="773" type="line" smooth="yes"/>
      <point x="974" y="1045"/>
      <point x="788" y="1210"/>
      <point x="484" y="1210" type="curve" smooth="yes"/>
      <point x="114" y="1210" type="line"/>
      <point x="114" y="918" type="line"/>
      <point x="455" y="918" type="line" smooth="yes"/>
      <point x="545" y="918"/>
      <point x="595" y="872"/>
      <point x="595" y="792" type="curve" smooth="yes"/>
    </contour>
  </outline>
</glyph>
<glyph name="gimelhebrew" format="2">
  <advance width="966.175"/>
  <unicode hex="05D2"/>
  <anchor x="431" y="0" name="bottom"/>
  <anchor x="152" y="603" name="center"/>
  <anchor x="417" y="1210" name="top"/>
  <anchor x="22" y="1210" name="topleft"/>
  <outline>
    <contour>
      <point x="100" y="-16" type="curve" smooth="yes"/>
      <point x="271" y="-16"/>
      <point x="406" y="111"/>
      <point x="440" y="289" type="curve"/>
      <point x="446" y="289" type="line"/>
      <point x="519" y="0" type="line"/>
      <point x="865" y="0" type="line"/>
      <point x="786" y="404" type="line" smooth="yes"/>
      <point x="772" y="469"/>
      <point x="765" y="537"/>
      <point x="765" y="603" type="curve" smooth="yes"/>
      <point x="765" y="1210" type="line"/>
      <point x="133" y="1210" type="line"/>
      <point x="133" y="918" type="line"/>
      <point x="393" y="918" type="line"/>
      <point x="393" y="468" type="line"/>
      <point x="335" y="361"/>
      <point x="249" y="320"/>
      <point x="121" y="320" type="curve" smooth="yes"/>
      <point x="86" y="320"/>
      <point x="48" y="324"/>
      <point x="8" y="330" type="curve"/>
      <point x="8" y="-9" type="line"/>
      <point x="37" y="-13"/>
      <point x="70" y="-16"/>
    </contour>
  </outline>
</glyph>
<glyph name="hehebrew" format="2">
  <advance width="1314.5"/>
  <unicode hex="05D4"/>
  <anchor x="658" y="0" name="bottom"/>
  <anchor x="657" y="603" name="center"/>
  <anchor x="644" y="1210" name="top"/>
  <anchor x="10" y="1210" name="topleft"/>
  <outline>
    <contour>
      <point x="813" y="0" type="line"/>
      <point x="1191" y="0" type="line"/>
      <point x="1191" y="773" type="line"/>
      <point x="1191" y="1045"/>
      <point x="1007" y="1210"/>
      <point x="701" y="1210" type="curve" smooth="yes"/>
      <point x="143" y="1210" type="line"/>
      <point x="143" y="918" type="line"/>
      <point x="672" y="918" type="line" smooth="yes"/>
      <point x="763" y="918"/>
      <point x="813" y="872"/>
      <point x="813" y="792" type="curve"/>
    </contour>
    <contour>
      <point x="136" y="0" type="line"/>
      <point x="501" y="0" type="line"/>
      <point x="501" y="460" type="line" smooth="yes"/>
      <point x="501" y="557"/>
      <point x="509" y="630"/>
      <point x="517" y="678" type="curve"/>
      <point x="218" y="678" type="line"/>
      <point x="195" y="663"/>
      <point x="136" y="594"/>
      <point x="136" y="416" type="curve" smooth="yes"/>
    </contour>
  </outline>
</glyph>
<glyph name="hethebrew" format="2">
  <advance width="1324.7"/>
  <unicode hex="05D7"/>
  <anchor x="678" y="0" name="bottom"/>
  <anchor x="678" y="603" name="center"/>
  <anchor x="655" y="1210" name="top"/>
  <anchor x="24" y="1210" name="topleft"/>
  <outline>
    <contour>
      <point x="155" y="0" type="line"/>
      <point x="533" y="0" type="line"/>
      <point x="533" y="918" type="line"/>
      <point x="717" y="918" type="line" smooth="yes"/>
      <point x="782" y="918"/>
      <point x="822" y="871"/>
      <point x="822" y="788" type="curve" smooth="yes"/>
      <point x="824" y="0" type="line"/>
      <point x="1201" y="0" type="line"/>
      <point x="1201" y="754" type="line"/>
      <point x="1199" y="1053"/>
      <point x="1032" y="1210"/>
      <point x="717" y="1210" type="curve" smooth="yes"/>
      <point x="156" y="1210" type="line"/>
    </contour>
  </outline>
</glyph>
<glyph name="yodhebrew" format="2">
  <advance width="747.45"/>
  <unicode hex="05D9"/>
  <anchor x="411" y="0" name="bottom"/>
  <anchor x="36" y="741" name="center"/>
  <anchor x="347" y="1210" name="top"/>
  <anchor x="0" y="1210" name="topleft"/>
  <outline>
    <contour>
      <point x="223" y="512" type="line"/>
      <point x="601" y="512" type="line"/>
      <point x="601" y="1210" type="line"/>
      <point x="49" y="1210" type="line"/>
      <point x="49" y="918" type="line"/>
      <point x="223" y="918" type="line"/>
    </contour>
  </outline>
</glyph>
<glyph name="finalkafhebrew" format="2">
  <advance width="1096.6"/>
  <unicode hex="05DA"/>
  <anchor x="106" y="616" name="bottom"/>
  <anchor x="292" y="697" name="center"/>
  <anchor x="506" y="1210" name="top"/>
  <anchor x="-1" y="1210" name="topleft"/>
  <outline>
    <contour>
      <point x="569" y="-416" type="line"/>
      <point x="941" y="-416" type="line"/>
      <point x="941" y="1210" type="line"/>
      <point x="72" y="1210" type="line"/>
      <point x="72" y="918" type="line"/>
      <point x="569" y="918" type="line"/>
    </contour>
  </outline>
</glyph>
<glyph name="kafhebrew" format="2">
  <advance width="1147.275"/>
  <unicode hex="05DB"/>
  <anchor x="522" y="0" name="bottom"/>
  <anchor x="339" y="603" name="center"/>
  <anchor x="538" y="1210" name="top"/>
  <anchor x="1" y="1210" name="topleft"/>
  <outline>
    <contour>
      <point x="413" y="-20" type="curve" smooth="yes"/>
      <point x="762" y="-19"/>
      <point x="993" y="140"/>
      <point x="993" y="555" type="curve" smooth="yes"/>
      <point x="993" y="1210" type="line"/>
      <point x="105" y="1210" type="line"/>
      <point x="105" y="918" type="line"/>
      <point x="614" y="918" type="line"/>
      <point x="614" y="493" type="line" smooth="yes"/>
      <point x="614" y="343"/>
      <point x="543" y="269"/>
      <point x="356" y="268" type="curve" smooth="yes"/>
      <point x="290" y="269"/>
      <point x="209" y="279"/>
      <point x="112" y="297" type="curve"/>
      <point x="55" y="23" type="line"/>
      <point x="184" y="-4"/>
      <point x="304" y="-20"/>
    </contour>
  </outline>
</glyph>
<glyph name="memhebrew" format="2">
  <advance width="1393.85"/>
  <unicode hex="05DE"/>
  <anchor x="722" y="0" name="bottom"/>
  <anchor x="738" y="603" name="center"/>
  <anchor x="690" y="1210" name="top"/>
  <anchor x="20" y="1210" name="topleft"/>
  <outline>
    <contour>
      <point x="147" y="0" type="line"/>
      <point x="521" y="0" type="line"/>
      <point x="584" y="689" type="line" smooth="yes"/>
      <point x="599" y="854"/>
      <point x="647" y="938"/>
      <point x="752" y="938" type="curve" smooth="yes"/>
      <point x="838" y="938"/>
      <point x="890" y="855"/>
      <point x="890" y="720" type="curve" smooth="yes"/>
      <point x="891" y="292" type="line"/>
      <point x="725" y="292" type="line"/>
      <point x="725" y="0" type="line"/>
      <point x="1270" y="0" type="line"/>
      <point x="1270" y="668" type="line" smooth="yes"/>
      <point x="1268" y="1047"/>
      <point x="1065" y="1245"/>
      <point x="677" y="1245" type="curve" smooth="yes"/>
      <point x="479" y="1245"/>
      <point x="246" y="1205"/>
      <point x="92" y="1147" type="curve"/>
      <point x="170" y="876" type="line"/>
      <point x="206" y="892"/>
      <point x="282" y="916"/>
      <point x="332" y="923" type="curve"/>
      <point x="332" y="918" type="line"/>
      <point x="329" y="916"/>
      <point x="325" y="911"/>
      <point x="322" y="908" type="curve" smooth="yes"/>
      <point x="271" y="850"/>
      <point x="230" y="744"/>
      <point x="218" y="637" type="curve" smooth="yes"/>
    </contour>
  </outline>
</glyph>
<glyph name="finalnunhebrew" format="2">
  <advance width="686.375"/>
  <unicode hex="05DF"/>
  <anchor x="-292" y="610" name="bottom"/>
  <anchor x="-16" y="603" name="center"/>
  <anchor x="299" y="1210" name="top"/>
  <anchor x="-2" y="1210" name="topleft"/>
  <outline>
    <contour>
      <point x="160" y="-416" type="line"/>
      <point x="532" y="-416" type="line"/>
      <point x="532" y="1210" type="line"/>
      <point x="67" y="1210" type="line"/>
      <point x="67" y="918" type="line"/>
      <point x="160" y="918" type="line"/>
    </contour>
  </outline>
</glyph>
<glyph name="nunhebrew" format="2">
  <advance width="858.725"/>
  <unicode hex="05E0"/>
  <anchor x="382" y="0" name="bottom"/>
  <anchor x="121" y="603" name="center"/>
  <anchor x="429" y="1210" name="top"/>
  <anchor x="3" y="1210" name="topleft"/>
  <outline>
    <contour>
      <point x="308" y="-20" type="curve" smooth="yes"/>
      <point x="556" y="-20"/>
      <point x="704" y="135"/>
      <point x="704" y="390" type="curve" smooth="yes"/>
      <point x="704" y="1210" type="line"/>
      <point x="124" y="1210" type="line"/>
      <point x="124" y="918" type="line"/>
      <point x="325" y="918" type="line"/>
      <point x="325" y="420" type="line" smooth="yes"/>
      <point x="325" y="328"/>
      <point x="287" y="284"/>
      <point x="203" y="284" type="curve" smooth="yes"/>
      <point x="157" y="284"/>
      <point x="109" y="287"/>
      <point x="59" y="293" type="curve"/>
      <point x="60" y="11" type="line"/>
      <point x="161" y="-11"/>
      <point x="224" y="-20"/>
    </contour>
  </outline>
</glyph>
<glyph name="samekhhebrew" format="2">
  <advance width="1336.45"/>
  <unicode hex="05E1"/>
  <anchor x="685" y="0" name="bottom"/>
  <anchor x="687" y="603" name="center"/>
  <anchor x="694" y="1210" name="top"/>
  <anchor x="-13" y="1210" name="topleft"/>
  <outline>
    <contour>
      <point x="687" y="-25" type="curve" smooth="yes"/>
      <point x="1022" y="-25"/>
      <point x="1245" y="204"/>
      <point x="1245" y="548" type="curve" smooth="yes"/>
      <point x="1245" y="654" type="line" smooth="yes"/>
      <point x="1245" y="1045"/>
      <point x="1032" y="1245"/>
      <point x="638" y="1245" type="curve" smooth="yes"/>
      <point x="441" y="1245"/>
      <point x="200" y="1214"/>
      <point x="37" y="1166" type="curve"/>
      <point x="107" y="894" type="line"/>
      <point x="132" y="900"/>
      <point x="200" y="917"/>
      <point x="233" y="925" type="curve"/>
      <point x="235" y="919" type="line"/>
      <point x="229" y="914"/>
      <point x="225" y="908"/>
      <point x="219" y="901" type="curve" smooth="yes"/>
      <point x="175" y="835"/>
      <point x="125" y="696"/>
      <point x="128" y="598" type="curve" smooth="yes"/>
      <point x="129" y="548" type="line" smooth="yes"/>
      <point x="135" y="204"/>
      <point x="360" y="-25"/>
    </contour>
    <contour>
      <point x="686" y="285" type="curve" smooth="yes"/>
      <point x="578" y="285"/>
      <point x="506" y="390"/>
      <point x="506" y="546" type="curve" smooth="yes"/>
      <point x="506" y="625" type="line" smooth="yes"/>
      <point x="505" y="833"/>
      <point x="566" y="938"/>
      <point x="689" y="938" type="curve" smooth="yes"/>
      <point x="807" y="938"/>
      <point x="866" y="841"/>
      <point x="866" y="647" type="curve" smooth="yes"/>
      <point x="866" y="546" type="line" smooth="yes"/>
      <point x="866" y="390"/>
      <point x="793" y="285"/>
    </contour>
  </outline>
</glyph>
<glyph name="finaltsadihebrew" format="2">
  <advance width="1232.4"/>
  <unicode hex="05E5"/>
  <anchor x="79" y="368" name="bottom"/>
  <anchor x="245" y="413" name="center"/>
  <anchor x="617" y="1210" name="top"/>
  <anchor x="0" y="1210" name="topleft"/>
  <outline>
    <contour>
      <point x="559" y="-416" type="line"/>
      <point x="920" y="-416" type="line"/>
      <point x="920" y="304" type="line" smooth="yes"/>
      <point x="920" y="395"/>
      <point x="898" y="461"/>
      <point x="844" y="540" type="curve" smooth="yes"/>
      <point x="724" y="713" type="line"/>
      <point x="434" y="1210" type="line"/>
      <point x="13" y="1210" type="line"/>
      <point x="523" y="451" type="line" smooth="yes"/>
      <point x="549" y="411"/>
      <point x="559" y="381"/>
      <point x="559" y="346" type="curve" smooth="yes"/>
    </contour>
    <contour>
      <point x="818" y="425" type="line"/>
      <point x="1210" y="1210" type="line"/>
      <point x="787" y="1210" type="line"/>
      <point x="586" y="725" type="line"/>
    </contour>
  </outline>
</glyph>
<glyph name="qofhebrew" format="2">
  <advance width="1371.325"/>
  <unicode hex="05E7"/>
  <anchor x="950" y="0" name="bottom"/>
  <anchor x="683" y="603" name="center"/>
  <anchor x="688" y="1210" name="top"/>
  <anchor x="29" y="1210" name="topleft"/>
  <outline>
    <contour>
      <point x="610" y="0" type="line"/>
      <point x="994" y="14"/>
      <point x="1217" y="203"/>
      <point x="1217" y="555" type="curve" smooth="yes"/>
      <point x="1217" y="1210" type="line"/>
      <point x="156" y="1210" type="line"/>
      <point x="156" y="918" type="line"/>
      <point x="838" y="918" type="line"/>
      <point x="838" y="548" type="line" smooth="yes"/>
      <point x="838" y="373"/>
      <point x="760" y="292"/>
      <point x="610" y="285" type="curve"/>
    </contour>
    <contour>
      <point x="160" y="-416" type="line"/>
      <point x="524" y="-416" type="line"/>
      <point x="524" y="453" type="line" smooth="yes"/>
      <point x="524" y="550"/>
      <point x="531" y="623"/>
      <point x="541" y="671" type="curve"/>
      <point x="241" y="671" type="line"/>
      <point x="218" y="656"/>
      <point x="160" y="586"/>
      <point x="160" y="409" type="curve" smooth="yes"/>
    </contour>
  </outline>
</glyph>
<glyph name="reshhebrew" format="2">
  <advance width="1025.25"/>
  <unicode hex="05E8"/>
  <anchor x="704" y="0" name="bottom"/>
  <anchor x="256" y="603" name="center"/>
  <anchor x="468" y="1210" name="top"/>
  <anchor x="-66" y="1210" name="topleft"/>
  <outline>
    <contour>
      <point x="523" y="0" type="line"/>
      <point x="902" y="0" type="line"/>
      <point x="902" y="760" type="line" smooth="yes"/>
      <point x="902" y="1042"/>
      <point x="714" y="1210"/>
      <point x="399" y="1210" type="curve" smooth="yes"/>
      <point x="23" y="1210" type="line"/>
      <point x="23" y="918" type="line"/>
      <point x="367" y="918" type="line" smooth="yes"/>
      <point x="471" y="918"/>
      <point x="523" y="871"/>
      <point x="523" y="777" type="curve" smooth="yes"/>
    </contour>
  </outline>
</glyph>
<glyph name="tavhebrew" format="2">
  <advance width="1345.475"/>
  <unicode hex="05EA"/>
  <anchor x="669" y="0" name="bottom"/>
  <anchor x="706" y="603" name="center"/>
  <anchor x="690" y="1210" name="top"/>
  <anchor x="17" y="1210" name="topleft"/>
  <outline>
    <contour>
      <point x="738" y="1210" type="curve" smooth="yes"/>
      <point x="97" y="1210" type="line"/>
      <point x="97" y="918" type="line"/>
      <point x="267" y="918" type="line"/>
      <point x="224" y="840"/>
      <point x="209" y="731"/>
      <point x="209" y="670" type="curve" smooth="yes"/>
      <point x="209" y="419" type="line" smooth="yes"/>
      <point x="209" y="326"/>
      <point x="158" y="282"/>
      <point x="75" y="282" type="curve" smooth="yes"/>
      <point x="52" y="282"/>
      <point x="31" y="283"/>
      <point x="11" y="283" type="curve"/>
      <point x="11" y="-6" type="line"/>
      <point x="70" y="-16"/>
      <point x="117" y="-21"/>
      <point x="181" y="-21" type="curve" smooth="yes"/>
      <point x="428" y="-21"/>
      <point x="578" y="132"/>
      <point x="578" y="389" type="curve" smooth="yes"/>
      <point x="578" y="706" type="line" smooth="yes"/>
      <point x="578" y="762"/>
      <point x="581" y="842"/>
      <point x="590" y="918" type="curve"/>
      <point x="739" y="918" type="line" smooth="yes"/>
      <point x="804" y="918"/>
      <point x="842" y="871"/>
      <point x="842" y="788" type="curve" smooth="yes"/>
      <point x="845" y="0" type="line"/>
      <point x="1222" y="0" type="line"/>
      <point x="1222" y="754" type="line" smooth="yes"/>
      <point x="1222" y="1053"/>
      <point x="1053" y="1210"/>
    </contour>
  </outline>
</glyph>
<glyph name="gereshhebrew" format="2">
  <advance width="525.375"/>
  <unicode hex="05F3"/>
  <outline>
    <contour>
      <point x="249" y="842" type="line"/>
      <point x="375" y="946"/>
      <point x="465" y="1130"/>
      <point x="466" y="1285" type="curve"/>
      <point x="467" y="1462" type="line"/>
      <point x="131" y="1462" type="line"/>
      <point x="131" y="1249" type="line"/>
      <point x="131" y="1150"/>
      <point x="85" y="1016"/>
      <point x="22" y="927" type="curve"/>
    </contour>
  </outline>
</glyph>
<glyph name="afii61664" format="2">
  <unicode hex="200C"/>
  <outline>
    <contour>
      <point x="-705" y="1153" type="line"/>
      <point x="-705" y="-200" type="line"/>
      <point x="-446" y="-200" type="line"/>
      <point x="-446" y="1153" type="line"/>
    </contour>
  </outline>
</glyph>
<glyph name="afii57596" format="2">
  <unicode hex="200E"/>
  <outline>
    <contour>
      <point x="-924" y="1416" type="line"/>
      <point x="-924" y="1181" type="line"/>
      <point x="-270" y="1181" type="line"/>
      <point x="-270" y="1416" type="line"/>
    </contour>
    <contour>
      <point x="-586" y="1023" type="line"/>
      <point x="-319" y="1023" type="line"/>
      <point x="-133" y="1299" type="line"/>
      <point x="-325" y="1363" type="line"/>
    </contour>
    <contour>
      <point x="-320" y="1571" type="line"/>
      <point x="-587" y="1571" type="line"/>
      <point x="-324" y="1234" type="line"/>
      <point x="-133" y="1299" type="line"/>
    </contour>
    <contour>
      <point x="-924" y="1312" type="line"/>
      <point x="-924" y="-200" type="line"/>
      <point x="-665" y="-200" type="line"/>
      <point x="-665" y="1312" type="line"/>
    </contour>
  </outline>
</glyph>
<glyph name="afii300" format="2">
  <unicode hex="200F"/>
  <outline>
    <contour>
      <point x="-280" y="1416" type="line"/>
      <point x="-280" y="1181" type="line"/>
      <point x="-935" y="1181" type="line"/>
      <point x="-935" y="1416" type="line"/>
    </contour>
    <contour>
      <point x="-618" y="1023" type="line"/>
      <point x="-886" y="1023" type="line"/>
      <point x="-1072" y="1299" type="line"/>
      <point x="-879" y="1363" type="line"/>
    </contour>
    <contour>
      <point x="-884" y="1571" type="line"/>
      <point x="-617" y="1571" type="line"/>
      <point x="-880" y="1234" type="line"/>
      <point x="-1072" y="1299" type="line"/>
    </contour>
    <contour>
      <point x="-280" y="1312" type="line"/>
      <point x="-280" y="-200" type="line"/>
      <point x="-540" y="-200" type="line"/>
      <point x="-540" y="1312" type="line"/>
    </contour>
  </outline>
</glyph>
<glyph name="quotedblbase" format="2">
  <advance width="907.775"/>
  <unicode hex="201E"/>
  <outline>
    <contour>
      <point x="432" y="57" type="curve" smooth="yes"/>
      <point x="434" y="275" type="line"/>
      <point x="159" y="275" type="line"/>
      <point x="159" y="59" type="line" smooth="yes"/>
      <point x="159" y="-86"/>
      <point x="127" y="-180"/>
      <point x="87" y="-260" type="curve"/>
      <point x="256" y="-344" type="line"/>
      <point x="350" y="-256"/>
      <point x="432" y="-87"/>
    </contour>
    <contour>
      <point x="809" y="57" type="curve" smooth="yes"/>
      <point x="810" y="275" type="line"/>
      <point x="536" y="275" type="line"/>
      <point x="536" y="59" type="line" smooth="yes"/>
      <point x="536" y="-86"/>
      <point x="491" y="-180"/>
      <point x="451" y="-260" type="curve"/>
      <point x="620" y="-344" type="line"/>
      <point x="714" y="-256"/>
      <point x="809" y="-87"/>
    </contour>
  </outline>
</glyph>
<glyph name="bullet" format="2">
  <advance width="767.8"/>
  <unicode hex="2022"/>
  <outline>
    <contour>
      <point x="133" y="763" type="curve"/>
      <point x="133" y="726" type="line"/>
      <point x="133" y="579"/>
      <point x="235" y="477"/>
      <point x="395" y="477" type="curve" smooth="yes"/>
      <point x="556" y="477"/>
      <point x="655" y="579"/>
      <point x="655" y="726" type="curve"/>
      <point x="655" y="763" type="line"/>
      <point x="655" y="912"/>
      <point x="556" y="1016"/>
      <point x="392" y="1016" type="curve" smooth="yes"/>
      <point x="235" y="1016"/>
      <point x="133" y="912"/>
    </contour>
  </outline>
</glyph>
<glyph name="guilsinglright" format="2">
  <advance width="621.8"/>
  <unicode hex="203A"/>
  <outline>
    <contour>
      <point x="304" y="511" type="line"/>
      <point x="74" y="105" type="line"/>
      <point x="292" y="105" type="line"/>
      <point x="562" y="497" type="line"/>
      <point x="562" y="510" type="line"/>
    </contour>
    <contour>
      <point x="292" y="907" type="line"/>
      <point x="74" y="907" type="line"/>
      <point x="304" y="502" type="line"/>
      <point x="562" y="503" type="line"/>
      <point x="562" y="516" type="line"/>
    </contour>
  </outline>
</glyph>
<glyph name="fraction" format="2">
  <advance width="901.875"/>
  <unicode hex="2044"/>
  <outline>
    <contour>
      <point x="177" y="107" type="line"/>
      <point x="888" y="1245" type="line"/>
      <point x="722" y="1329" type="line"/>
      <point x="11" y="191" type="line"/>
    </contour>
  </outline>
</glyph>
<glyph name="fi" format="2">
  <advance width="1322.8"/>
  <unicode hex="FB01"/>
  <outline>
    <contour>
      <point x="167" y="0" type="line"/>
      <point x="529" y="0" type="line"/>
      <point x="529" y="1093" type="line"/>
      <point x="529" y="1190"/>
      <point x="597" y="1244"/>
      <point x="716" y="1244" type="curve" smooth="yes"/>
      <point x="846" y="1244"/>
      <point x="924" y="1222"/>
      <point x="1004" y="1202" type="curve"/>
      <point x="1053" y="1499" type="line"/>
      <point x="929" y="1533"/>
      <point x="818" y="1557"/>
      <point x="693" y="1557" type="curve" smooth="yes"/>
      <point x="359" y="1557"/>
      <point x="167" y="1394"/>
      <point x="167" y="1093" type="curve"/>
    </contour>
    <contour>
      <point x="735" y="822" type="line"/>
      <point x="735" y="1082" type="line"/>
      <point x="13" y="1082" type="line"/>
      <point x="13" y="822" type="line"/>
    </contour>
    <contour>
      <point x="1217" y="0" type="line"/>
      <point x="1217" y="1082" type="line"/>
      <point x="855" y="1082" type="line"/>
      <point x="855" y="0" type="line"/>
    </contour>
  </outline>
</glyph>
<glyph name="st" format="2">
  <advance width="1777.9"/>
  <unicode hex="FB06"/>
  <outline>
    <contour>
      <point x="834" y="745" type="curve"/>
      <point x="996" y="745" type="line"/>
      <point x="996" y="935"/>
      <point x="923" y="1014"/>
      <point x="923" y="1168" type="curve" smooth="yes"/>
      <point x="923" y="1230"/>
      <point x="950" y="1314"/>
      <point x="1061" y="1314" type="curve" smooth="yes"/>
      <point x="1118" y="1314"/>
      <point x="1213" y="1295"/>
      <point x="1213" y="1174" type="curve"/>
      <point x="1573" y="1174" type="line"/>
      <point x="1573" y="1398"/>
      <point x="1433" y="1566"/>
      <point x="1073" y="1566" type="curve" smooth="yes"/>
      <point x="760" y="1566"/>
      <point x="616" y="1428"/>
      <point x="616" y="1265" type="curve" smooth="yes"/>
      <point x="616" y="1110"/>
      <point x="732" y="1004"/>
    </contour>
    <contour>
      <point x="1746" y="822" type="line"/>
      <point x="1746" y="1082" type="line"/>
      <point x="1079" y="1082" type="line"/>
      <point x="1079" y="822" type="line"/>
    </contour>
    <contour>
      <point x="1573" y="1174" type="line"/>
      <point x="1213" y="1174" type="line"/>
      <point x="1213" y="364" type="line" smooth="yes"/>
      <point x="1213" y="93"/>
      <point x="1340" y="-20"/>
      <point x="1564" y="-20" type="curve" smooth="yes"/>
      <point x="1637" y="-20"/>
      <point x="1700" y="-10"/>
      <point x="1760" y="11" type="curve"/>
      <point x="1761" y="279" type="line"/>
      <point x="1739" y="275"/>
      <point x="1716" y="274"/>
      <point x="1678" y="274" type="curve" smooth="yes"/>
      <point x="1596" y="274"/>
      <point x="1573" y="298"/>
      <point x="1573" y="367" type="curve" smooth="yes"/>
    </contour>
    <component base="s"/>
  </outline>
</glyph>
<glyph name="widealefhebrew" format="2">
  <advance width="1920.675"/>
  <unicode hex="FB21"/>
  <anchor x="926" y="0" name="bottom"/>
  <anchor x="784" y="213" name="center"/>
  <anchor x="974" y="1210" name="top"/>
  <anchor x="33" y="1210" name="topleft"/>
  <outline>
    <contour>
      <point x="1316" y="0" type="line"/>
      <point x="1827" y="0" type="line"/>
      <point x="584" y="1210" type="line"/>
      <point x="87" y="1210" type="line"/>
    </contour>
    <contour>
      <point x="181" y="0" type="line"/>
      <point x="546" y="0" type="line"/>
      <point x="546" y="561" type="line" smooth="yes"/>
      <point x="546" y="716"/>
      <point x="567" y="793"/>
      <point x="612" y="888" type="curve"/>
      <point x="524" y="1013" type="line"/>
      <point x="288" y="942"/>
      <point x="181" y="801"/>
      <point x="181" y="560" type="curve" smooth="yes"/>
    </contour>
    <contour>
      <point x="1387" y="247" type="line"/>
      <point x="1856" y="1210" type="line"/>
      <point x="1434" y="1210" type="line"/>
      <point x="1143" y="547" type="line"/>
    </contour>
  </outline>
</glyph>
<glyph name="widedalethebrew" format="2">
  <advance width="1487.3"/>
  <unicode hex="FB22"/>
  <anchor x="959" y="0" name="bottom"/>
  <anchor x="418" y="603" name="center"/>
  <anchor x="731" y="1210" name="top"/>
  <anchor x="22" y="1210" name="topleft"/>
  <outline>
    <contour>
      <point x="60" y="1210" type="line"/>
      <point x="60" y="918" type="line"/>
      <point x="770" y="918" type="line"/>
      <point x="770" y="0" type="line"/>
      <point x="1148" y="0" type="line"/>
      <point x="1148" y="900" type="line"/>
      <point x="1417" y="931" type="line"/>
      <point x="1417" y="1210" type="line"/>
    </contour>
  </outline>
</glyph>
<glyph name="widekafhebrew" format="2">
  <advance width="1548.925"/>
  <unicode hex="FB24"/>
  <anchor x="687" y="0" name="bottom"/>
  <anchor x="616" y="603" name="center"/>
  <anchor x="733" y="1210" name="top"/>
  <anchor x="22" y="1210" name="topleft"/>
  <outline>
    <contour>
      <point x="654" y="-41" type="curve" smooth="yes"/>
      <point x="1101" y="-41"/>
      <point x="1391" y="144"/>
      <point x="1394" y="534" type="curve" smooth="yes"/>
      <point x="1394" y="1210" type="line"/>
      <point x="108" y="1210" type="line"/>
      <point x="108" y="918" type="line"/>
      <point x="1015" y="918" type="line"/>
      <point x="1015" y="537" type="line" smooth="yes"/>
      <point x="1013" y="363"/>
      <point x="914" y="264"/>
      <point x="642" y="264" type="curve" smooth="yes"/>
      <point x="517" y="264"/>
      <point x="312" y="285"/>
      <point x="109" y="328" type="curve"/>
      <point x="55" y="36" type="line"/>
      <point x="256" y="-14"/>
      <point x="488" y="-41"/>
    </contour>
  </outline>
</glyph>
<glyph name="widelamedhebrew" format="2">
  <advance width="1478.225"/>
  <unicode hex="FB25"/>
  <anchor x="666" y="0" name="bottom"/>
  <anchor x="428" y="603" name="center"/>
  <anchor x="927" y="1210" name="top"/>
  <anchor x="-135" y="1287" name="topleft"/>
  <outline>
    <contour>
      <point x="998" y="918" type="line"/>
      <point x="1346" y="1210" type="line"/>
      <point x="435" y="1210" type="line"/>
      <point x="435" y="1447" type="line"/>
      <point x="56" y="1447" type="line"/>
      <point x="56" y="918" type="line"/>
    </contour>
    <contour>
      <point x="1411" y="967" type="line"/>
      <point x="1411" y="1210" type="line"/>
      <point x="1126" y="1210" type="line"/>
      <point x="453" y="0" type="line"/>
      <point x="852" y="0" type="line"/>
    </contour>
  </outline>
</glyph>
<glyph name="widetavhebrew" format="2">
  <advance width="1850.775"/>
  <unicode hex="FB28"/>
  <anchor x="905" y="0" name="bottom"/>
  <anchor x="956" y="603" name="center"/>
  <anchor x="905" y="1210" name="top"/>
  <anchor x="-9" y="1210" name="topleft"/>
  <outline>
    <contour>
      <point x="1244" y="1210" type="curve" smooth="yes"/>
      <point x="97" y="1210" type="line"/>
      <point x="97" y="918" type="line"/>
      <point x="267" y="918" type="line"/>
      <point x="224" y="840"/>
      <point x="209" y="731"/>
      <point x="209" y="670" type="curve" smooth="yes"/>
      <point x="209" y="419" type="line" smooth="yes"/>
      <point x="209" y="326"/>
      <point x="158" y="282"/>
      <point x="75" y="282" type="curve" smooth="yes"/>
      <point x="52" y="282"/>
      <point x="31" y="283"/>
      <point x="11" y="283" type="curve"/>
      <point x="11" y="-6" type="line"/>
      <point x="70" y="-16"/>
      <point x="117" y="-21"/>
      <point x="181" y="-21" type="curve" smooth="yes"/>
      <point x="428" y="-21"/>
      <point x="578" y="132"/>
      <point x="578" y="389" type="curve" smooth="yes"/>
      <point x="578" y="706" type="line" smooth="yes"/>
      <point x="578" y="762"/>
      <point x="581" y="842"/>
      <point x="590" y="918" type="curve"/>
      <point x="1244" y="918" type="line" smooth="yes"/>
      <point x="1309" y="918"/>
      <point x="1349" y="871"/>
      <point x="1349" y="788" type="curve" smooth="yes"/>
      <point x="1350" y="0" type="line"/>
      <point x="1728" y="0" type="line"/>
      <point x="1728" y="754" type="line" smooth="yes"/>
      <point x="1728" y="1053"/>
      <point x="1558" y="1210"/>
    </contour>
  </outline>
</glyph>
<glyph name="alternativeplushebrew" format="2">
  <advance width="1092.275"/>
  <unicode hex="FB29"/>
  <outline>
    <contour>
      <point x="377" y="1206" type="line"/>
      <point x="377" y="839" type="line"/>
      <point x="48" y="839" type="line"/>
      <point x="48" y="526" type="line"/>
      <point x="1046" y="526" type="line"/>
      <point x="1046" y="839" type="line"/>
      <point x="719" y="839" type="line"/>
      <point x="719" y="1206" type="line"/>
    </contour>
  </outline>
</glyph>
<glyph name="aleflamedhebrew" format="2">
  <advance width="1303.55"/>
  <unicode hex="FB4F"/>
  <outline>
    <contour>
      <point x="795" y="0" type="line"/>
      <point x="1217" y="0" type="line"/>
      <point x="435" y="1151" type="line"/>
      <point x="435" y="1447" type="line"/>
      <point x="56" y="1447" type="line"/>
      <point x="56" y="1086" type="line"/>
    </contour>
    <contour>
      <point x="1239" y="1210" type="line"/>
      <point x="816" y="1210" type="line"/>
      <point x="606" y="730" type="line"/>
      <point x="850" y="429" type="line"/>
    </contour>
  </outline>
</glyph>
<glyph name="AE.smcp" format="2">
  <advance width="1632"/>
  <anchor x="828" y="0" name="bottom"/>
  <anchor x="828" y="1290" name="top"/>
  <anchor x="1632" y="1290" name="top0315"/>
  <outline>
    <contour>
      <point x="1577" y="0" type="line"/>
      <point x="1577" y="288" type="line"/>
      <point x="825" y="288" type="line"/>
      <point x="825" y="0" type="line"/>
    </contour>
    <contour>
      <point x="1470" y="459" type="line"/>
      <point x="1470" y="749" type="line"/>
      <point x="792" y="749" type="line"/>
      <point x="792" y="459" type="line"/>
    </contour>
    <contour>
      <point x="1527" y="877" type="line"/>
      <point x="1527" y="1165" type="line"/>
      <point x="776" y="1165" type="line"/>
      <point x="776" y="877" type="line"/>
    </contour>
    <contour>
      <point x="316" y="0" type="line"/>
      <point x="744" y="1041" type="line"/>
      <point x="707" y="1165" type="line"/>
      <point x="457" y="1165" type="line"/>
      <point x="-76" y="0" type="line"/>
    </contour>
    <contour>
      <point x="957" y="173" type="line"/>
      <point x="957" y="456" type="line"/>
      <point x="261" y="456" type="line"/>
      <point x="261" y="173" type="line"/>
    </contour>
    <contour>
      <point x="1061" y="0" type="line"/>
      <point x="1011" y="1165" type="line"/>
      <point x="654" y="1165" type="line"/>
      <point x="703" y="0" type="line"/>
    </contour>
  </outline>
</glyph>
<glyph name="B.smcp" format="2">
  <advance width="1152.8"/>
  <anchor x="511" y="10" name="bottom"/>
  <anchor x="1153" y="-407" name="bottom_dd"/>
  <anchor x="514" y="1320" name="top"/>
  <anchor x="1153" y="1320" name="top0315"/>
  <anchor x="1153" y="1600" name="top_dd"/>
  <outline>
    <contour>
      <point x="290" y="454" type="line"/>
      <point x="613" y="454" type="line"/>
      <point x="706" y="556" type="line"/>
      <point x="996" y="544"/>
      <point x="1072" y="697"/>
      <point x="1072" y="840" type="curve"/>
      <point x="1072" y="1057"/>
      <point x="882" y="1165"/>
      <point x="552" y="1165" type="curve"/>
      <point x="74" y="1165" type="line"/>
      <point x="74" y="0" type="line"/>
      <point x="435" y="0" type="line"/>
      <point x="435" y="875" type="line"/>
      <point x="589" y="875" type="line"/>
      <point x="673" y="875"/>
      <point x="710" y="851"/>
      <point x="710" y="777" type="curve"/>
      <point x="710" y="717"/>
      <point x="674" y="689"/>
      <point x="575" y="689" type="curve"/>
      <point x="288" y="689" type="line"/>
    </contour>
    <contour>
      <point x="212" y="0" type="line"/>
      <point x="599" y="0" type="line"/>
      <point x="933" y="0"/>
      <point x="1094" y="97"/>
      <point x="1094" y="335" type="curve" smooth="yes"/>
      <point x="1094" y="455"/>
      <point x="1016" y="621"/>
      <point x="735" y="591" type="curve"/>
      <point x="648" y="689" type="line"/>
      <point x="352" y="689" type="line"/>
      <point x="351" y="454" type="line"/>
      <point x="613" y="454" type="line" smooth="yes"/>
      <point x="703" y="454"/>
      <point x="733" y="425"/>
      <point x="733" y="368" type="curve" smooth="yes"/>
      <point x="733" y="339"/>
      <point x="705" y="289"/>
      <point x="599" y="289" type="curve" smooth="yes"/>
      <point x="321" y="289" type="line"/>
    </contour>
  </outline>
</glyph>
<glyph name="C.smcp" format="2">
  <advance width="1160.625"/>
  <anchor x="595" y="7" name="bottom"/>
  <anchor x="1161" y="-407" name="bottom_dd"/>
  <anchor x="601" y="1320" name="top"/>
  <anchor x="1161" y="1320" name="top0315"/>
  <anchor x="1161" y="1600" name="top_dd"/>
  <outline>
    <contour>
      <point x="1127" y="415" type="curve"/>
      <point x="767" y="415" type="line"/>
      <point x="772" y="311"/>
      <point x="698" y="273"/>
      <point x="590" y="273" type="curve" smooth="yes"/>
      <point x="450" y="273"/>
      <point x="403" y="342"/>
      <point x="403" y="572" type="curve" smooth="yes"/>
      <point x="403" y="593" type="line" smooth="yes"/>
      <point x="403" y="810"/>
      <point x="461" y="892"/>
      <point x="580" y="892" type="curve" smooth="yes"/>
      <point x="726" y="892"/>
      <point x="773" y="811"/>
      <point x="769" y="739" type="curve"/>
      <point x="1130" y="739" type="line"/>
      <point x="1107" y="989"/>
      <point x="926" y="1182"/>
      <point x="580" y="1182" type="curve" smooth="yes"/>
      <point x="257" y="1182"/>
      <point x="42" y="962"/>
      <point x="42" y="592" type="curve"/>
      <point x="42" y="572" type="line"/>
      <point x="42" y="202"/>
      <point x="239" y="-16"/>
      <point x="590" y="-16" type="curve" smooth="yes"/>
      <point x="905" y="-16"/>
      <point x="1119" y="151"/>
    </contour>
  </outline>
</glyph>
<glyph name="C.ss06" format="2">
  <advance width="1371.475"/>
  <outline>
    <contour>
      <point x="1322" y="501" type="curve"/>
      <point x="948" y="501" type="line"/>
      <point x="932" y="363"/>
      <point x="859" y="281"/>
      <point x="706" y="281" type="curve" smooth="yes"/>
      <point x="523" y="281"/>
      <point x="437" y="430"/>
      <point x="437" y="708" type="curve" smooth="yes"/>
      <point x="437" y="749" type="line" smooth="yes"/>
      <point x="437" y="1030"/>
      <point x="548" y="1174"/>
      <point x="709" y="1174" type="curve" smooth="yes"/>
      <point x="888" y="1174"/>
      <point x="932" y="1096"/>
      <point x="950" y="943" type="curve"/>
      <point x="1325" y="943" type="line"/>
      <point x="1296" y="1271"/>
      <point x="1097" y="1477"/>
      <point x="709" y="1477" type="curve" smooth="yes"/>
      <point x="338" y="1477"/>
      <point x="62" y="1204"/>
      <point x="62" y="747" type="curve"/>
      <point x="62" y="708" type="line"/>
      <point x="62" y="251"/>
      <point x="316" y="-21"/>
      <point x="706" y="-21" type="curve" smooth="yes"/>
      <point x="1076" y="-21"/>
      <point x="1294" y="155"/>
    </contour>
  </outline>
</glyph>
<glyph name="D.smcp" format="2">
  <advance width="1133.625"/>
  <anchor x="357" y="10" name="bottom"/>
  <anchor x="1134" y="-407" name="bottom_dd"/>
  <anchor x="224" y="571" name="cross"/>
  <anchor x="357" y="1320" name="top"/>
  <anchor x="1134" y="1320" name="top0315"/>
  <anchor x="1134" y="1600" name="top_dd"/>
  <outline>
    <contour>
      <point x="225" y="0" type="line"/>
      <point x="509" y="0" type="line"/>
      <point x="840" y="0"/>
      <point x="1090" y="242"/>
      <point x="1090" y="567" type="curve"/>
      <point x="1090" y="597" type="line"/>
      <point x="1090" y="922"/>
      <point x="842" y="1165"/>
      <point x="497" y="1165" type="curve"/>
      <point x="220" y="1165" type="line"/>
      <point x="220" y="875" type="line"/>
      <point x="497" y="875" type="line"/>
      <point x="684" y="875"/>
      <point x="727" y="787"/>
      <point x="727" y="599" type="curve"/>
      <point x="727" y="567" type="line" smooth="yes"/>
      <point x="727" y="365"/>
      <point x="682" y="289"/>
      <point x="509" y="289" type="curve"/>
      <point x="227" y="289" type="line"/>
    </contour>
    <contour>
      <point x="435" y="0" type="line"/>
      <point x="435" y="1165" type="line"/>
      <point x="74" y="1165" type="line"/>
      <point x="74" y="0" type="line"/>
    </contour>
  </outline>
</glyph>
<glyph name="Euro.smcp" format="2">
  <advance width="1049.35"/>
  <outline>
    <contour>
      <point x="833" y="275"/>
      <point x="755" y="275" type="curve" smooth="yes"/>
      <point x="625" y="275"/>
      <point x="576" y="338"/>
      <point x="576" y="467" type="curve" smooth="yes"/>
      <point x="576" y="673" type="line" smooth="yes"/>
      <point x="576" y="815"/>
      <point x="623" y="895"/>
      <point x="753" y="895" type="curve" smooth="yes"/>
      <point x="832" y="895"/>
      <point x="880" y="886"/>
      <point x="954" y="867" type="curve"/>
      <point x="978" y="1151" type="line"/>
      <point x="898" y="1176"/>
      <point x="838" y="1186"/>
      <point x="753" y="1186" type="curve" smooth="yes"/>
      <point x="418" y="1186"/>
      <point x="214" y="985"/>
      <point x="214" y="671" type="curve" smooth="yes"/>
      <point x="214" y="467" type="line" smooth="yes"/>
      <point x="214" y="178"/>
      <point x="420" y="-16"/>
      <point x="755" y="-16" type="curve" smooth="yes"/>
      <point x="839" y="-16"/>
      <point x="899" y="-5"/>
      <point x="975" y="15" type="curve"/>
      <point x="954" y="300" type="line"/>
      <point x="887" y="288"/>
    </contour>
    <contour>
      <point x="908" y="603" type="line"/>
      <point x="908" y="805" type="line"/>
      <point x="75" y="805" type="line"/>
      <point x="75" y="603" type="line"/>
    </contour>
    <contour>
      <point x="908" y="349" type="line"/>
      <point x="908" y="550" type="line"/>
      <point x="75" y="550" type="line"/>
      <point x="75" y="349" type="line"/>
    </contour>
  </outline>
</glyph>
<glyph name="G.smcp" format="2">
  <advance width="1179.325"/>
  <anchor x="655" y="7" name="bottom"/>
  <anchor x="1179" y="-407" name="bottom_dd"/>
  <anchor x="626" y="1320" name="top"/>
  <anchor x="1179" y="1320" name="top0315"/>
  <anchor x="1179" y="1600" name="top_dd"/>
  <outline>
    <contour>
      <point x="1141" y="137" type="curve"/>
      <point x="1141" y="657" type="line"/>
      <point x="592" y="657" type="line"/>
      <point x="592" y="408" type="line"/>
      <point x="778" y="408" type="line"/>
      <point x="778" y="292" type="line"/>
      <point x="757" y="283"/>
      <point x="711" y="273"/>
      <point x="650" y="273" type="curve" smooth="yes"/>
      <point x="479" y="273"/>
      <point x="416" y="356"/>
      <point x="416" y="559" type="curve" smooth="yes"/>
      <point x="416" y="605" type="line" smooth="yes"/>
      <point x="416" y="817"/>
      <point x="509" y="892"/>
      <point x="619" y="892" type="curve" smooth="yes"/>
      <point x="733" y="892"/>
      <point x="779" y="859"/>
      <point x="795" y="752" type="curve"/>
      <point x="1140" y="752" type="line"/>
      <point x="1117" y="1007"/>
      <point x="974" y="1182"/>
      <point x="604" y="1182" type="curve" smooth="yes"/>
      <point x="297" y="1182"/>
      <point x="56" y="978"/>
      <point x="56" y="603" type="curve" smooth="yes"/>
      <point x="56" y="559" type="line" smooth="yes"/>
      <point x="56" y="185"/>
      <point x="275" y="-16"/>
      <point x="620" y="-16" type="curve" smooth="yes"/>
      <point x="887" y="-16"/>
      <point x="1068" y="68"/>
    </contour>
  </outline>
</glyph>
<glyph name="G.ss06" format="2">
  <advance width="1407.575"/>
  <outline>
    <contour>
      <point x="1324" y="178" type="curve"/>
      <point x="1324" y="773" type="line"/>
      <point x="748" y="773" type="line"/>
      <point x="748" y="506" type="line"/>
      <point x="948" y="506" type="line"/>
      <point x="948" y="314" type="line"/>
      <point x="924" y="293"/>
      <point x="864" y="281"/>
      <point x="774" y="281" type="curve" smooth="yes"/>
      <point x="558" y="281"/>
      <point x="437" y="453"/>
      <point x="437" y="688" type="curve" smooth="yes"/>
      <point x="437" y="754" type="line" smooth="yes"/>
      <point x="437" y="1012"/>
      <point x="552" y="1174"/>
      <point x="733" y="1174" type="curve" smooth="yes"/>
      <point x="858" y="1174"/>
      <point x="945" y="1107"/>
      <point x="962" y="968" type="curve"/>
      <point x="1323" y="968" type="line"/>
      <point x="1296" y="1268"/>
      <point x="1103" y="1477"/>
      <point x="720" y="1477" type="curve" smooth="yes"/>
      <point x="334" y="1477"/>
      <point x="62" y="1185"/>
      <point x="62" y="752" type="curve" smooth="yes"/>
      <point x="62" y="688" type="line" smooth="yes"/>
      <point x="62" y="274"/>
      <point x="357" y="-21"/>
      <point x="774" y="-21" type="curve" smooth="yes"/>
      <point x="1065" y="-21"/>
      <point x="1251" y="95"/>
    </contour>
  </outline>
</glyph>
<glyph name="I.smcp" format="2">
  <advance width="553.2"/>
  <anchor x="280" y="-7" name="bottom"/>
  <anchor x="553" y="-407" name="bottom_dd"/>
  <anchor x="387" y="0" name="ogonek"/>
  <anchor x="457" y="0" name="right"/>
  <anchor x="-46" y="1166" name="tonos"/>
  <anchor x="278" y="1320" name="top"/>
  <anchor x="553" y="1320" name="top0315"/>
  <anchor x="553" y="1600" name="top_dd"/>
  <outline>
    <contour>
      <point x="457" y="0" type="line"/>
      <point x="457" y="1165" type="line"/>
      <point x="96" y="1165" type="line"/>
      <point x="96" y="0" type="line"/>
    </contour>
  </outline>
</glyph>
<glyph name="J.smcp" format="2">
  <advance width="997.5"/>
  <anchor x="478" y="-10" name="bottom"/>
  <anchor x="998" y="-407" name="bottom_dd"/>
  <anchor x="742" y="1320" name="top"/>
  <anchor x="998" y="1320" name="top0315"/>
  <anchor x="998" y="1600" name="top_dd"/>
  <outline>
    <contour>
      <point x="558" y="1165" type="line"/>
      <point x="558" y="432" type="line"/>
      <point x="558" y="315"/>
      <point x="539" y="273"/>
      <point x="478" y="273" type="curve" smooth="yes"/>
      <point x="409" y="273"/>
      <point x="387" y="314"/>
      <point x="387" y="401" type="curve"/>
      <point x="25" y="401" type="line"/>
      <point x="25" y="112"/>
      <point x="202" y="-16"/>
      <point x="478" y="-16" type="curve" smooth="yes"/>
      <point x="716" y="-16"/>
      <point x="920" y="146"/>
      <point x="920" y="432" type="curve"/>
      <point x="920" y="1165" type="line"/>
    </contour>
  </outline>
</glyph>
<glyph name="K.smcp" format="2">
  <advance width="1134.35"/>
  <anchor x="491" y="10" name="bottom"/>
  <anchor x="1134" y="-407" name="bottom_dd"/>
  <anchor x="195" y="977" name="cross"/>
  <anchor x="1054" y="0" name="right"/>
  <anchor x="505" y="1320" name="top"/>
  <anchor x="1134" y="1320" name="top0315"/>
  <anchor x="1134" y="1600" name="top_dd"/>
  <outline>
    <contour>
      <point x="435" y="0" type="line"/>
      <point x="435" y="1165" type="line"/>
      <point x="74" y="1165" type="line"/>
      <point x="74" y="0" type="line"/>
    </contour>
    <contour>
      <point x="709" y="535" type="line"/>
      <point x="1167" y="1165" type="line"/>
      <point x="713" y="1165" type="line"/>
      <point x="511" y="851" type="line"/>
      <point x="344" y="592" type="line"/>
      <point x="442" y="272" type="line"/>
    </contour>
    <contour>
      <point x="477" y="490" type="line"/>
      <point x="739" y="0" type="line"/>
      <point x="1163" y="0" type="line"/>
      <point x="766" y="682" type="line"/>
    </contour>
  </outline>
</glyph>
<glyph name="L.smcp" format="2">
  <advance width="958.525"/>
  <anchor x="496" y="8" name="bottom"/>
  <anchor x="959" y="-407" name="bottom_dd"/>
  <anchor x="504" y="1170" name="caron"/>
  <anchor x="507" y="722" name="dot"/>
  <anchor x="270" y="1320" name="top"/>
  <anchor x="959" y="1320" name="top0315"/>
  <anchor x="959" y="1600" name="top_dd"/>
  <outline>
    <contour>
      <point x="930" y="0" type="line"/>
      <point x="930" y="289" type="line"/>
      <point x="298" y="289" type="line"/>
      <point x="298" y="0" type="line"/>
    </contour>
    <contour>
      <point x="435" y="0" type="line"/>
      <point x="435" y="1165" type="line"/>
      <point x="74" y="1165" type="line"/>
      <point x="74" y="0" type="line"/>
    </contour>
  </outline>
</glyph>
<glyph name="M.smcp" format="2">
  <advance width="1548.075"/>
  <anchor x="770" y="10" name="bottom"/>
  <anchor x="1548" y="-407" name="bottom_dd"/>
  <anchor x="1481" y="0" name="right"/>
  <anchor x="770" y="1320" name="top"/>
  <anchor x="1548" y="1320" name="top0315"/>
  <anchor x="1548" y="1600" name="top_dd"/>
  <outline>
    <contour>
      <point x="551" y="1165" type="line"/>
      <point x="266" y="1165" type="line"/>
      <point x="656" y="0" type="line"/>
      <point x="888" y="0" type="line"/>
      <point x="1278" y="1165" type="line"/>
      <point x="994" y="1165" type="line"/>
      <point x="772" y="470" type="line"/>
    </contour>
    <contour>
      <point x="377" y="1165" type="line"/>
      <point x="74" y="1165" type="line"/>
      <point x="74" y="0" type="line"/>
      <point x="437" y="0" type="line"/>
      <point x="437" y="121" type="line"/>
    </contour>
    <contour>
      <point x="1473" y="1165" type="line"/>
      <point x="1168" y="1165" type="line"/>
      <point x="1110" y="121" type="line"/>
      <point x="1110" y="0" type="line"/>
      <point x="1473" y="0" type="line"/>
    </contour>
  </outline>
</glyph>
<glyph name="N.smcp" format="2">
  <advance width="1229.175"/>
  <anchor x="629" y="-7" name="bottom"/>
  <anchor x="1229" y="-407" name="bottom_dd"/>
  <anchor x="624" y="1320" name="top"/>
  <anchor x="1229" y="1320" name="top0315"/>
  <anchor x="1229" y="1600" name="top_dd"/>
  <outline>
    <contour>
      <point x="1156" y="0" type="line"/>
      <point x="1156" y="1165" type="line"/>
      <point x="795" y="1165" type="line"/>
      <point x="795" y="544" type="line"/>
      <point x="435" y="1165" type="line"/>
      <point x="74" y="1165" type="line"/>
      <point x="74" y="0" type="line"/>
      <point x="435" y="0" type="line"/>
      <point x="435" y="621" type="line"/>
      <point x="795" y="0" type="line"/>
    </contour>
  </outline>
</glyph>
<glyph name="O.smcp" format="2">
  <advance width="1219"/>
  <anchor x="594" y="0" name="bottom"/>
  <anchor x="1219" y="-407" name="bottom_dd"/>
  <anchor x="68" y="1163" name="tonos"/>
  <anchor x="605" y="1320" name="top"/>
  <anchor x="1219" y="1320" name="top0315"/>
  <anchor x="1219" y="1600" name="top_dd"/>
  <outline>
    <contour>
      <point x="1176" y="568" type="curve"/>
      <point x="1176" y="596" type="line"/>
      <point x="1176" y="956"/>
      <point x="935" y="1181"/>
      <point x="609" y="1181" type="curve" smooth="yes"/>
      <point x="275" y="1181"/>
      <point x="42" y="956"/>
      <point x="42" y="596" type="curve"/>
      <point x="42" y="568" type="line"/>
      <point x="42" y="208"/>
      <point x="277" y="-16"/>
      <point x="611" y="-16" type="curve" smooth="yes"/>
      <point x="937" y="-16"/>
      <point x="1176" y="208"/>
    </contour>
    <contour>
      <point x="813" y="597" type="curve"/>
      <point x="813" y="568" type="line"/>
      <point x="813" y="383"/>
      <point x="736" y="269"/>
      <point x="611" y="269" type="curve" smooth="yes"/>
      <point x="472" y="269"/>
      <point x="405" y="383"/>
      <point x="405" y="568" type="curve" smooth="yes"/>
      <point x="405" y="597" type="line" smooth="yes"/>
      <point x="405" y="787"/>
      <point x="470" y="895"/>
      <point x="609" y="895" type="curve" smooth="yes"/>
      <point x="736" y="895"/>
      <point x="813" y="787"/>
    </contour>
  </outline>
</glyph>
<glyph name="O.ss06" format="2">
  <advance width="1488.125"/>
  <outline>
    <contour>
      <point x="1425" y="708" type="curve"/>
      <point x="1425" y="748" type="line"/>
      <point x="1425" y="1149"/>
      <point x="1150" y="1477"/>
      <point x="743" y="1477" type="curve" smooth="yes"/>
      <point x="332" y="1477"/>
      <point x="62" y="1149"/>
      <point x="62" y="748" type="curve"/>
      <point x="62" y="708" type="line"/>
      <point x="62" y="306"/>
      <point x="334" y="-21"/>
      <point x="745" y="-21" type="curve" smooth="yes"/>
      <point x="1152" y="-21"/>
      <point x="1425" y="306"/>
    </contour>
    <contour>
      <point x="1051" y="750" type="curve"/>
      <point x="1051" y="708" type="line"/>
      <point x="1051" y="483"/>
      <point x="948" y="279"/>
      <point x="745" y="279" type="curve" smooth="yes"/>
      <point x="536" y="279"/>
      <point x="437" y="483"/>
      <point x="437" y="708" type="curve" smooth="yes"/>
      <point x="437" y="750" type="line" smooth="yes"/>
      <point x="437" y="974"/>
      <point x="534" y="1176"/>
      <point x="743" y="1176" type="curve" smooth="yes"/>
      <point x="946" y="1176"/>
      <point x="1051" y="974"/>
    </contour>
  </outline>
</glyph>
<glyph name="P.smcp" format="2">
  <advance width="1163.175"/>
  <anchor x="451" y="10" name="bottom"/>
  <anchor x="1163" y="-407" name="bottom_dd"/>
  <anchor x="517" y="1320" name="top"/>
  <anchor x="1163" y="1320" name="top0315"/>
  <anchor x="1163" y="1600" name="top_dd"/>
  <outline>
    <contour>
      <point x="291" y="346" type="line"/>
      <point x="591" y="346" type="line"/>
      <point x="900" y="346"/>
      <point x="1096" y="510"/>
      <point x="1096" y="736" type="curve"/>
      <point x="1096" y="983"/>
      <point x="900" y="1165"/>
      <point x="591" y="1165" type="curve"/>
      <point x="74" y="1165" type="line"/>
      <point x="74" y="0" type="line"/>
      <point x="435" y="0" type="line"/>
      <point x="435" y="875" type="line"/>
      <point x="591" y="875" type="line"/>
      <point x="688" y="875"/>
      <point x="737" y="810"/>
      <point x="737" y="734" type="curve"/>
      <point x="737" y="679"/>
      <point x="688" y="636"/>
      <point x="591" y="636" type="curve"/>
      <point x="291" y="636" type="line"/>
    </contour>
  </outline>
</glyph>
<glyph name="Q.smcp" format="2">
  <advance width="1219"/>
  <anchor x="615" y="-10" name="bottom"/>
  <anchor x="1219" y="-407" name="bottom_dd"/>
  <anchor x="615" y="1320" name="top"/>
  <anchor x="1219" y="1320" name="top0315"/>
  <anchor x="1219" y="1600" name="top_dd"/>
  <outline>
    <contour>
      <point x="1160" y="-36" type="line"/>
      <point x="796" y="240" type="line"/>
      <point x="582" y="53" type="line"/>
      <point x="940" y="-225" type="line"/>
    </contour>
    <contour>
      <point x="1180" y="568" type="curve"/>
      <point x="1180" y="596" type="line"/>
      <point x="1180" y="956"/>
      <point x="940" y="1181"/>
      <point x="615" y="1181" type="curve" smooth="yes"/>
      <point x="281" y="1181"/>
      <point x="50" y="956"/>
      <point x="50" y="596" type="curve"/>
      <point x="50" y="568" type="line"/>
      <point x="50" y="208"/>
      <point x="283" y="-16"/>
      <point x="615" y="-16" type="curve" smooth="yes"/>
      <point x="942" y="-16"/>
      <point x="1180" y="208"/>
    </contour>
    <contour>
      <point x="820" y="597" type="curve"/>
      <point x="820" y="568" type="line"/>
      <point x="820" y="383"/>
      <point x="743" y="269"/>
      <point x="615" y="269" type="curve" smooth="yes"/>
      <point x="476" y="269"/>
      <point x="410" y="383"/>
      <point x="410" y="568" type="curve" smooth="yes"/>
      <point x="410" y="597" type="line" smooth="yes"/>
      <point x="410" y="787"/>
      <point x="476" y="895"/>
      <point x="615" y="895" type="curve" smooth="yes"/>
      <point x="742" y="895"/>
      <point x="820" y="787"/>
    </contour>
  </outline>
</glyph>
<glyph name="Q.ss06" format="2">
  <advance width="1487.675"/>
  <outline>
    <contour>
      <point x="1429" y="-50" type="line"/>
      <point x="1057" y="279" type="line"/>
      <point x="832" y="76" type="line"/>
      <point x="1197" y="-254" type="line"/>
    </contour>
    <contour>
      <point x="1425" y="721" type="curve" smooth="yes"/>
      <point x="1425" y="735" type="line"/>
      <point x="1425" y="1169"/>
      <point x="1150" y="1477"/>
      <point x="743" y="1477" type="curve" smooth="yes"/>
      <point x="332" y="1477"/>
      <point x="62" y="1169"/>
      <point x="62" y="735" type="curve" smooth="yes"/>
      <point x="62" y="721" type="line" smooth="yes"/>
      <point x="62" y="286"/>
      <point x="334" y="-21"/>
      <point x="745" y="-21" type="curve" smooth="yes"/>
      <point x="1152" y="-21"/>
      <point x="1425" y="286"/>
    </contour>
    <contour>
      <point x="1051" y="737" type="curve" smooth="yes"/>
      <point x="1051" y="721" type="line"/>
      <point x="1051" y="465"/>
      <point x="948" y="279"/>
      <point x="745" y="279" type="curve" smooth="yes"/>
      <point x="536" y="279"/>
      <point x="437" y="465"/>
      <point x="437" y="721" type="curve" smooth="yes"/>
      <point x="437" y="737" type="line" smooth="yes"/>
      <point x="437" y="995"/>
      <point x="534" y="1176"/>
      <point x="743" y="1176" type="curve" smooth="yes"/>
      <point x="946" y="1176"/>
      <point x="1051" y="995"/>
    </contour>
  </outline>
</glyph>
<glyph name="R.alt" format="2">
  <advance width="1325.05"/>
  <anchor x="638" y="10" name="bottom"/>
  <anchor x="638" y="1612" name="top"/>
  <anchor x="1325" y="1612" name="top0315"/>
  <outline>
    <contour>
      <point x="337" y="529" type="line"/>
      <point x="747" y="529" type="line"/>
      <point x="838" y="561" type="line"/>
      <point x="852" y="656" type="line"/>
      <point x="1077" y="721"/>
      <point x="1233" y="804"/>
      <point x="1233" y="1020" type="curve"/>
      <point x="1233" y="1294"/>
      <point x="1052" y="1456"/>
      <point x="712" y="1456" type="curve"/>
      <point x="101" y="1456" type="line"/>
      <point x="101" y="0" type="line"/>
      <point x="476" y="0" type="line"/>
      <point x="476" y="1153" type="line"/>
      <point x="684" y="1153" type="line"/>
      <point x="804" y="1153"/>
      <point x="858" y="1079"/>
      <point x="858" y="981" type="curve"/>
      <point x="858" y="883"/>
      <point x="789" y="831"/>
      <point x="676" y="831" type="curve"/>
      <point x="337" y="831" type="line"/>
    </contour>
    <contour>
      <point x="761" y="718" type="curve"/>
      <point x="658" y="529" type="line"/>
      <point x="791" y="529"/>
      <point x="841" y="465"/>
      <point x="841" y="335" type="curve"/>
      <point x="841" y="261" type="line"/>
      <point x="841" y="226"/>
      <point x="846" y="47"/>
      <point x="908" y="0" type="curve"/>
      <point x="1293" y="0" type="line"/>
      <point x="1293" y="31" type="line"/>
      <point x="1228" y="79"/>
      <point x="1215" y="225"/>
      <point x="1215" y="259" type="curve"/>
      <point x="1215" y="337" type="line"/>
      <point x="1215" y="555"/>
      <point x="1115" y="708"/>
    </contour>
  </outline>
</glyph>
<glyph name="R.smcp" format="2">
  <advance width="1172.25"/>
  <anchor x="528" y="8" name="bottom"/>
  <anchor x="1172" y="-407" name="bottom_dd"/>
  <anchor x="502" y="1320" name="top"/>
  <anchor x="1172" y="1320" name="top0315"/>
  <anchor x="1172" y="1600" name="top_dd"/>
  <outline>
    <contour>
      <point x="599" y="1165" type="curve" smooth="yes"/>
      <point x="74" y="1165" type="line"/>
      <point x="74" y="0" type="line"/>
      <point x="436" y="0" type="line"/>
      <point x="436" y="875" type="line"/>
      <point x="599" y="875" type="line" smooth="yes"/>
      <point x="677" y="875"/>
      <point x="728" y="843"/>
      <point x="728" y="772" type="curve" smooth="yes"/>
      <point x="728" y="690"/>
      <point x="683" y="660"/>
      <point x="596" y="660" type="curve" smooth="yes"/>
      <point x="290" y="660" type="line"/>
      <point x="292" y="369" type="line"/>
      <point x="712" y="369" type="line"/>
      <point x="833" y="449" type="line"/>
      <point x="981" y="516"/>
      <point x="1088" y="587"/>
      <point x="1088" y="819" type="curve" smooth="yes"/>
      <point x="1088" y="1049"/>
      <point x="892" y="1165"/>
    </contour>
    <contour>
      <point x="474" y="511" type="line"/>
      <point x="738" y="0" type="line"/>
      <point x="1126" y="0" type="line"/>
      <point x="1126" y="14" type="line"/>
      <point x="857" y="515" type="line"/>
    </contour>
  </outline>
</glyph>
<glyph name="V.smcp" format="2">
  <advance width="1183.65"/>
  <anchor x="589" y="10" name="bottom"/>
  <anchor x="1184" y="-407" name="bottom_dd"/>
  <anchor x="589" y="1320" name="top"/>
  <anchor x="1184" y="1320" name="top0315"/>
  <anchor x="1184" y="1600" name="top_dd"/>
  <outline>
    <contour>
      <point x="822" y="1165" type="line"/>
      <point x="590" y="339" type="line"/>
      <point x="536" y="0" type="line"/>
      <point x="794" y="0" type="line"/>
      <point x="1198" y="1165" type="line"/>
    </contour>
    <contour>
      <point x="588" y="343" type="line"/>
      <point x="360" y="1165" type="line"/>
      <point x="-16" y="1165" type="line"/>
      <point x="386" y="0" type="line"/>
      <point x="648" y="0" type="line"/>
    </contour>
  </outline>
</glyph>
<glyph name="W.smcp" format="2">
  <advance width="1516.925"/>
  <anchor x="736" y="10" name="bottom"/>
  <anchor x="1517" y="-407" name="bottom_dd"/>
  <anchor x="736" y="1320" name="top"/>
  <anchor x="1517" y="1320" name="top0315"/>
  <anchor x="1517" y="1600" name="top_dd"/>
  <outline>
    <contour>
      <point x="592" y="1165" type="line"/>
      <point x="366" y="18" type="line"/>
      <point x="454" y="0" type="line"/>
      <point x="637" y="0" type="line"/>
      <point x="861" y="1085" type="line"/>
      <point x="757" y="1165" type="line"/>
    </contour>
    <contour>
      <point x="554" y="15" type="line"/>
      <point x="364" y="1165" type="line"/>
      <point x="19" y="1165" type="line"/>
      <point x="270" y="0" type="line"/>
      <point x="476" y="0" type="line"/>
    </contour>
    <contour>
      <point x="1142" y="1165" type="line"/>
      <point x="951" y="15" type="line"/>
      <point x="1032" y="0" type="line"/>
      <point x="1236" y="0" type="line"/>
      <point x="1484" y="1165" type="line"/>
    </contour>
    <contour>
      <point x="1142" y="19" type="line"/>
      <point x="908" y="1165" type="line"/>
      <point x="741" y="1165" type="line"/>
      <point x="633" y="1085" type="line"/>
      <point x="869" y="0" type="line"/>
      <point x="1054" y="0" type="line"/>
    </contour>
  </outline>
</glyph>
<glyph name="X.smcp" format="2">
  <advance width="1135.575"/>
  <anchor x="547" y="8" name="bottom"/>
  <anchor x="1136" y="-407" name="bottom_dd"/>
  <anchor x="450" y="594" name="cross"/>
  <anchor x="1113" y="0" name="right"/>
  <anchor x="547" y="1320" name="top"/>
  <anchor x="1136" y="1320" name="top0315"/>
  <anchor x="1136" y="1600" name="top_dd"/>
  <outline>
    <contour>
      <point x="546" y="832" type="line"/>
      <point x="399" y="1165" type="line"/>
      <point x="-10" y="1165" type="line"/>
      <point x="322" y="587" type="line"/>
      <point x="-20" y="0" type="line"/>
      <point x="393" y="0" type="line"/>
      <point x="551" y="339" type="line"/>
      <point x="720" y="0" type="line"/>
      <point x="1146" y="0" type="line"/>
      <point x="777" y="587" type="line"/>
      <point x="1108" y="1165" type="line"/>
      <point x="697" y="1165" type="line"/>
    </contour>
  </outline>
</glyph>
<glyph name="alpha.alt" format="2">
  <advance width="1182.5"/>
  <outline>
    <contour>
      <point x="56" y="542" type="curve"/>
      <point x="56" y="521" type="line"/>
      <point x="56" y="205"/>
      <point x="211" y="-21"/>
      <point x="502" y="-21" type="curve" smooth="yes"/>
      <point x="780" y="-21"/>
      <point x="880" y="223"/>
      <point x="928" y="516" type="curve"/>
      <point x="928" y="521" type="line"/>
      <point x="881" y="837"/>
      <point x="781" y="1102"/>
      <point x="504" y="1102" type="curve" smooth="yes"/>
      <point x="212" y="1102"/>
      <point x="56" y="868"/>
    </contour>
    <contour>
      <point x="417" y="521" type="curve"/>
      <point x="417" y="542" type="line"/>
      <point x="417" y="692"/>
      <point x="456" y="812"/>
      <point x="571" y="812" type="curve" smooth="yes"/>
      <point x="692" y="812"/>
      <point x="734" y="700"/>
      <point x="728" y="561" type="curve"/>
      <point x="728" y="478" type="line"/>
      <point x="736" y="371"/>
      <point x="696" y="269"/>
      <point x="569" y="269" type="curve" smooth="yes"/>
      <point x="450" y="269"/>
      <point x="417" y="373"/>
    </contour>
    <contour>
      <point x="805" y="1082" type="line"/>
      <point x="730" y="540" type="line"/>
      <point x="1004" y="540" type="line"/>
      <point x="1114" y="1082" type="line"/>
    </contour>
    <contour>
      <point x="730" y="540" type="line"/>
      <point x="812" y="0" type="line"/>
      <point x="1121" y="0" type="line"/>
      <point x="1004" y="540" type="line"/>
    </contour>
  </outline>
</glyph>
<glyph name="b.ss06" format="2">
  <advance width="1182.5"/>
  <outline>
    <contour>
      <point x="452" y="1536" type="line"/>
      <point x="92" y="1536" type="line"/>
      <point x="92" y="0" type="line"/>
      <point x="404" y="0" type="line"/>
      <point x="452" y="279" type="line"/>
    </contour>
    <contour>
      <point x="1127" y="529" type="curve" smooth="yes"/>
      <point x="1127" y="550" type="line"/>
      <point x="1127" y="878"/>
      <point x="977" y="1102"/>
      <point x="684" y="1102" type="curve" smooth="yes"/>
      <point x="424" y="1102"/>
      <point x="324" y="846"/>
      <point x="281" y="527" type="curve"/>
      <point x="281" y="539" type="line"/>
      <point x="325" y="242"/>
      <point x="424" y="-20"/>
      <point x="686" y="-20" type="curve" smooth="yes"/>
      <point x="977" y="-20"/>
      <point x="1127" y="215"/>
    </contour>
    <contour>
      <point x="767" y="550" type="curve" smooth="yes"/>
      <point x="767" y="529" type="line"/>
      <point x="767" y="383"/>
      <point x="733" y="268"/>
      <point x="595" y="268" type="curve" smooth="yes"/>
      <point x="456" y="268"/>
      <point x="403" y="361"/>
      <point x="410" y="517" type="curve"/>
      <point x="410" y="551" type="line"/>
      <point x="404" y="734"/>
      <point x="459" y="812"/>
      <point x="593" y="812" type="curve" smooth="yes"/>
      <point x="728" y="812"/>
      <point x="767" y="701"/>
    </contour>
  </outline>
</glyph>
<glyph name="crossbar" format="2">
  <advance width="1019.625"/>
  <anchor x="504" y="745" name="_cross"/>
  <outline>
    <contour>
      <point x="883" y="647" type="line"/>
      <point x="883" y="853" type="line"/>
      <point x="140" y="853" type="line"/>
      <point x="140" y="647" type="line"/>
    </contour>
  </outline>
</glyph>
<glyph name="d.ss06" format="2">
  <advance width="1180.125"/>
  <outline>
    <contour>
      <point x="728" y="1536" type="line"/>
      <point x="728" y="257" type="line"/>
      <point x="776" y="0" type="line"/>
      <point x="1090" y="0" type="line"/>
      <point x="1090" y="1536" type="line"/>
    </contour>
    <contour>
      <point x="53" y="551" type="curve" smooth="yes"/>
      <point x="53" y="530" type="line"/>
      <point x="53" y="216"/>
      <point x="216" y="-20"/>
      <point x="492" y="-20" type="curve" smooth="yes"/>
      <point x="740" y="-20"/>
      <point x="856" y="243"/>
      <point x="900" y="540" type="curve"/>
      <point x="900" y="528" type="line"/>
      <point x="857" y="847"/>
      <point x="740" y="1102"/>
      <point x="494" y="1102" type="curve" smooth="yes"/>
      <point x="217" y="1102"/>
      <point x="53" y="879"/>
    </contour>
    <contour>
      <point x="413" y="530" type="curve" smooth="yes"/>
      <point x="413" y="551" type="line"/>
      <point x="413" y="703"/>
      <point x="471" y="812"/>
      <point x="587" y="812" type="curve" smooth="yes"/>
      <point x="704" y="812"/>
      <point x="776" y="735"/>
      <point x="769" y="552" type="curve"/>
      <point x="769" y="518" type="line"/>
      <point x="778" y="364"/>
      <point x="707" y="270"/>
      <point x="585" y="270" type="curve" smooth="yes"/>
      <point x="466" y="270"/>
      <point x="413" y="385"/>
    </contour>
  </outline>
</glyph>
<glyph name="e.ss07" format="2">
  <advance width="1122.225"/>
  <outline>
    <contour>
      <point x="274" y="-20"/>
      <point x="630" y="-20" type="curve"/>
      <point x="806" y="-20"/>
      <point x="952" y="27"/>
      <point x="1034" y="75" type="curve"/>
      <point x="979" y="329" type="line"/>
      <point x="903" y="295"/>
      <point x="777" y="271"/>
      <point x="691" y="271" type="curve" smooth="yes"/>
      <point x="490" y="271"/>
      <point x="419" y="358"/>
      <point x="419" y="503" type="curve" smooth="yes"/>
      <point x="419" y="538" type="line" smooth="yes"/>
      <point x="419" y="679"/>
      <point x="446" y="812"/>
      <point x="586" y="812" type="curve"/>
      <point x="690" y="812"/>
      <point x="732" y="767"/>
      <point x="732" y="674" type="curve"/>
      <point x="732" y="648" type="line"/>
      <point x="194" y="648" type="line"/>
      <point x="194" y="417" type="line"/>
      <point x="1084" y="417" type="line"/>
      <point x="1084" y="560" type="line" smooth="yes"/>
      <point x="1084" y="895"/>
      <point x="899" y="1102"/>
      <point x="586" y="1102" type="curve" smooth="yes"/>
      <point x="231" y="1102"/>
      <point x="59" y="850"/>
      <point x="59" y="538" type="curve" smooth="yes"/>
      <point x="59" y="503" type="line" smooth="yes"/>
      <point x="59" y="214"/>
    </contour>
  </outline>
</glyph>
<glyph name="eight.sup" format="2">
  <advance width="770.65"/>
  <outline>
    <contour>
      <point x="704" y="64"/>
      <point x="704" y="220" type="curve" smooth="yes"/>
      <point x="704" y="368"/>
      <point x="568" y="446"/>
      <point x="384" y="446" type="curve" smooth="yes"/>
      <point x="206" y="446"/>
      <point x="67" y="368"/>
      <point x="67" y="220" type="curve" smooth="yes"/>
      <point x="67" y="64"/>
      <point x="203" y="-11"/>
      <point x="386" y="-11" type="curve" smooth="yes"/>
      <point x="572" y="-11"/>
    </contour>
    <contour>
      <point x="466" y="290"/>
      <point x="466" y="246" type="curve" smooth="yes"/>
      <point x="466" y="206"/>
      <point x="435" y="181"/>
      <point x="386" y="181" type="curve" smooth="yes"/>
      <point x="340" y="181"/>
      <point x="306" y="206"/>
      <point x="306" y="246" type="curve" smooth="yes"/>
      <point x="306" y="290"/>
      <point x="340" y="306"/>
      <point x="384" y="306" type="curve" smooth="yes"/>
      <point x="433" y="306"/>
    </contour>
    <contour>
      <point x="687" y="443"/>
      <point x="687" y="574" type="curve" smooth="yes"/>
      <point x="687" y="724"/>
      <point x="563" y="801"/>
      <point x="384" y="801" type="curve" smooth="yes"/>
      <point x="211" y="801"/>
      <point x="84" y="724"/>
      <point x="84" y="574" type="curve" smooth="yes"/>
      <point x="84" y="443"/>
      <point x="211" y="365"/>
      <point x="386" y="365" type="curve" smooth="yes"/>
      <point x="564" y="365"/>
    </contour>
    <contour>
      <point x="448" y="593"/>
      <point x="448" y="557" type="curve" smooth="yes"/>
      <point x="448" y="522"/>
      <point x="432" y="497"/>
      <point x="386" y="497" type="curve" smooth="yes"/>
      <point x="342" y="497"/>
      <point x="323" y="522"/>
      <point x="323" y="557" type="curve" smooth="yes"/>
      <point x="323" y="591"/>
      <point x="342" y="610"/>
      <point x="384" y="610" type="curve" smooth="yes"/>
      <point x="431" y="610"/>
    </contour>
  </outline>
</glyph>
<glyph name="f_f_i" format="2">
  <advance width="2006.425"/>
  <outline>
    <contour>
      <point x="162" y="0" type="line"/>
      <point x="524" y="0" type="line"/>
      <point x="524" y="1162" type="line"/>
      <point x="524" y="1230"/>
      <point x="576" y="1268"/>
      <point x="670" y="1268" type="curve" smooth="yes"/>
      <point x="705" y="1268"/>
      <point x="728" y="1265"/>
      <point x="751" y="1259" type="curve"/>
      <point x="749" y="1535" type="line"/>
      <point x="699" y="1547"/>
      <point x="647" y="1557"/>
      <point x="587" y="1557" type="curve" smooth="yes"/>
      <point x="327" y="1557"/>
      <point x="162" y="1418"/>
      <point x="162" y="1162" type="curve"/>
    </contour>
    <contour>
      <point x="721" y="822" type="line"/>
      <point x="721" y="1082" type="line"/>
      <point x="8" y="1082" type="line"/>
      <point x="8" y="822" type="line"/>
    </contour>
    <contour>
      <point x="851" y="0" type="line"/>
      <point x="1212" y="0" type="line"/>
      <point x="1212" y="1093" type="line"/>
      <point x="1212" y="1190"/>
      <point x="1281" y="1244"/>
      <point x="1399" y="1244" type="curve" smooth="yes"/>
      <point x="1530" y="1244"/>
      <point x="1608" y="1222"/>
      <point x="1687" y="1202" type="curve"/>
      <point x="1737" y="1499" type="line"/>
      <point x="1613" y="1533"/>
      <point x="1502" y="1557"/>
      <point x="1377" y="1557" type="curve" smooth="yes"/>
      <point x="1042" y="1557"/>
      <point x="851" y="1394"/>
      <point x="851" y="1093" type="curve"/>
    </contour>
    <contour>
      <point x="1418" y="822" type="line"/>
      <point x="1418" y="1082" type="line"/>
      <point x="697" y="1082" type="line"/>
      <point x="697" y="822" type="line"/>
    </contour>
    <contour>
      <point x="1901" y="0" type="line"/>
      <point x="1901" y="1082" type="line"/>
      <point x="1539" y="1082" type="line"/>
      <point x="1539" y="0" type="line"/>
    </contour>
  </outline>
</glyph>
<glyph name="f_f_l" format="2">
  <advance width="2006.425"/>
  <outline>
    <contour>
      <point x="162" y="0" type="line"/>
      <point x="524" y="0" type="line"/>
      <point x="524" y="1162" type="line"/>
      <point x="524" y="1230"/>
      <point x="576" y="1268"/>
      <point x="670" y="1268" type="curve" smooth="yes"/>
      <point x="705" y="1268"/>
      <point x="728" y="1265"/>
      <point x="751" y="1259" type="curve"/>
      <point x="749" y="1535" type="line"/>
      <point x="699" y="1547"/>
      <point x="647" y="1557"/>
      <point x="587" y="1557" type="curve" smooth="yes"/>
      <point x="327" y="1557"/>
      <point x="162" y="1418"/>
      <point x="162" y="1162" type="curve"/>
    </contour>
    <contour>
      <point x="720" y="822" type="line"/>
      <point x="720" y="1082" type="line"/>
      <point x="8" y="1082" type="line"/>
      <point x="8" y="822" type="line"/>
    </contour>
    <contour>
      <point x="851" y="0" type="line"/>
      <point x="1212" y="0" type="line"/>
      <point x="1212" y="1137" type="line"/>
      <point x="1212" y="1222"/>
      <point x="1281" y="1268"/>
      <point x="1406" y="1268" type="curve" smooth="yes"/>
      <point x="1521" y="1268"/>
      <point x="1637" y="1254"/>
      <point x="1757" y="1237" type="curve"/>
      <point x="1901" y="1545" type="line"/>
      <point x="1759" y="1549"/>
      <point x="1485" y="1557"/>
      <point x="1349" y="1557" type="curve" smooth="yes"/>
      <point x="1034" y="1557"/>
      <point x="851" y="1410"/>
      <point x="851" y="1137" type="curve"/>
    </contour>
    <contour>
      <point x="1539" y="1545" type="line"/>
      <point x="1539" y="0" type="line"/>
      <point x="1901" y="0" type="line"/>
      <point x="1901" y="1545" type="line"/>
    </contour>
    <contour>
      <point x="1417" y="822" type="line"/>
      <point x="1417" y="1082" type="line"/>
      <point x="697" y="1082" type="line"/>
      <point x="697" y="822" type="line"/>
    </contour>
  </outline>
</glyph>
<glyph name="f_l" format="2">
  <advance width="1318"/>
  <outline>
    <contour>
      <point x="162" y="0" type="line"/>
      <point x="524" y="0" type="line"/>
      <point x="524" y="1137" type="line"/>
      <point x="524" y="1222"/>
      <point x="593" y="1268"/>
      <point x="717" y="1268" type="curve" smooth="yes"/>
      <point x="833" y="1268"/>
      <point x="949" y="1254"/>
      <point x="1068" y="1237" type="curve"/>
      <point x="1212" y="1545" type="line"/>
      <point x="1070" y="1549"/>
      <point x="796" y="1557"/>
      <point x="661" y="1557" type="curve" smooth="yes"/>
      <point x="345" y="1557"/>
      <point x="162" y="1410"/>
      <point x="162" y="1137" type="curve"/>
    </contour>
    <contour>
      <point x="851" y="1545" type="line"/>
      <point x="851" y="0" type="line"/>
      <point x="1212" y="0" type="line"/>
      <point x="1212" y="1545" type="line"/>
    </contour>
    <contour>
      <point x="728" y="822" type="line"/>
      <point x="728" y="1082" type="line"/>
      <point x="8" y="1082" type="line"/>
      <point x="8" y="822" type="line"/>
    </contour>
  </outline>
</glyph>
<glyph name="five.smcp" format="2">
  <advance width="1081"/>
  <outline>
    <contour>
      <point x="69" y="555" type="line"/>
      <point x="356" y="485" type="line"/>
      <point x="368" y="495"/>
      <point x="411" y="533"/>
      <point x="502" y="533" type="curve"/>
      <point x="599" y="533"/>
      <point x="640" y="484"/>
      <point x="640" y="401" type="curve" smooth="yes"/>
      <point x="640" y="342"/>
      <point x="629" y="273"/>
      <point x="527" y="273" type="curve" smooth="yes"/>
      <point x="453" y="273"/>
      <point x="408" y="284"/>
      <point x="411" y="339" type="curve"/>
      <point x="46" y="339" type="line"/>
      <point x="42" y="126"/>
      <point x="282" y="-16"/>
      <point x="527" y="-16" type="curve" smooth="yes"/>
      <point x="850" y="-16"/>
      <point x="1000" y="199"/>
      <point x="1000" y="401" type="curve" smooth="yes"/>
      <point x="1000" y="639"/>
      <point x="869" y="770"/>
      <point x="601" y="770" type="curve" smooth="yes"/>
      <point x="524" y="770"/>
      <point x="440" y="741"/>
      <point x="419" y="736" type="curve"/>
      <point x="445" y="886" type="line"/>
      <point x="926" y="886" type="line"/>
      <point x="926" y="1165" type="line"/>
      <point x="154" y="1165" type="line"/>
    </contour>
  </outline>
</glyph>
<glyph name="five.sup" format="2">
  <advance width="770.65"/>
  <outline>
    <contour>
      <point x="71" y="377" type="line"/>
      <point x="259" y="330" type="line"/>
      <point x="269" y="338"/>
      <point x="298" y="364"/>
      <point x="361" y="364" type="curve"/>
      <point x="430" y="364"/>
      <point x="459" y="329"/>
      <point x="459" y="270" type="curve" smooth="yes"/>
      <point x="459" y="227"/>
      <point x="450" y="181"/>
      <point x="378" y="181" type="curve" smooth="yes"/>
      <point x="326" y="181"/>
      <point x="293" y="189"/>
      <point x="295" y="229" type="curve"/>
      <point x="55" y="229" type="line"/>
      <point x="53" y="84"/>
      <point x="214" y="-11"/>
      <point x="378" y="-11" type="curve" smooth="yes"/>
      <point x="595" y="-11"/>
      <point x="697" y="133"/>
      <point x="697" y="271" type="curve" smooth="yes"/>
      <point x="697" y="433"/>
      <point x="606" y="522"/>
      <point x="427" y="522" type="curve" smooth="yes"/>
      <point x="373" y="522"/>
      <point x="316" y="502"/>
      <point x="301" y="498" type="curve"/>
      <point x="320" y="605" type="line"/>
      <point x="647" y="605" type="line"/>
      <point x="647" y="789" type="line"/>
      <point x="127" y="789" type="line"/>
    </contour>
  </outline>
</glyph>
<glyph name="g.ss06" format="2">
  <advance width="1181.1"/>
  <outline>
    <contour>
      <point x="1090" y="1082" type="line"/>
      <point x="773" y="1082" type="line"/>
      <point x="728" y="822" type="line"/>
      <point x="728" y="91" type="line" smooth="yes"/>
      <point x="728" y="-74"/>
      <point x="648" y="-148"/>
      <point x="478" y="-148" type="curve" smooth="yes"/>
      <point x="390" y="-148"/>
      <point x="342" y="-133"/>
      <point x="271" y="-114" type="curve"/>
      <point x="232" y="-371" type="line"/>
      <point x="326" y="-414"/>
      <point x="439" y="-425"/>
      <point x="529" y="-425" type="curve" smooth="yes"/>
      <point x="874" y="-425"/>
      <point x="1090" y="-243"/>
      <point x="1090" y="87" type="curve" smooth="yes"/>
    </contour>
    <contour>
      <point x="53" y="552" type="curve" smooth="yes"/>
      <point x="53" y="531" type="line"/>
      <point x="53" y="217"/>
      <point x="218" y="-20"/>
      <point x="493" y="-20" type="curve" smooth="yes"/>
      <point x="755" y="-20"/>
      <point x="854" y="245"/>
      <point x="900" y="541" type="curve"/>
      <point x="900" y="530" type="line"/>
      <point x="855" y="848"/>
      <point x="794" y="1102"/>
      <point x="495" y="1102" type="curve" smooth="yes"/>
      <point x="218" y="1102"/>
      <point x="53" y="880"/>
    </contour>
    <contour>
      <point x="413" y="531" type="curve" smooth="yes"/>
      <point x="413" y="552" type="line"/>
      <point x="413" y="704"/>
      <point x="471" y="812"/>
      <point x="587" y="812" type="curve" smooth="yes"/>
      <point x="721" y="812"/>
      <point x="777" y="736"/>
      <point x="770" y="553" type="curve"/>
      <point x="770" y="519" type="line"/>
      <point x="779" y="365"/>
      <point x="724" y="270"/>
      <point x="585" y="270" type="curve" smooth="yes"/>
      <point x="466" y="270"/>
      <point x="413" y="386"/>
    </contour>
  </outline>
</glyph>
<glyph name="g.ss07" format="2">
  <advance width="1183.425"/>
  <outline>
    <contour>
      <point x="1064" y="1082" type="line"/>
      <point x="747" y="1082" type="line"/>
      <point x="702" y="822" type="line"/>
      <point x="702" y="94" type="line" smooth="yes"/>
      <point x="702" y="-73"/>
      <point x="622" y="-148"/>
      <point x="452" y="-148" type="curve" smooth="yes"/>
      <point x="362" y="-148"/>
      <point x="312" y="-132"/>
      <point x="239" y="-111" type="curve"/>
      <point x="200" y="-367" type="line"/>
      <point x="296" y="-413"/>
      <point x="411" y="-425"/>
      <point x="503" y="-425" type="curve" smooth="yes"/>
      <point x="849" y="-425"/>
      <point x="1064" y="-242"/>
      <point x="1064" y="90" type="curve" smooth="yes"/>
    </contour>
    <contour>
      <point x="47" y="553" type="curve" smooth="yes"/>
      <point x="47" y="532" type="line"/>
      <point x="47" y="218"/>
      <point x="192" y="-20"/>
      <point x="467" y="-20" type="curve" smooth="yes"/>
      <point x="729" y="-20"/>
      <point x="828" y="245"/>
      <point x="874" y="541" type="curve"/>
      <point x="874" y="530" type="line"/>
      <point x="829" y="848"/>
      <point x="769" y="1102"/>
      <point x="469" y="1102" type="curve" smooth="yes"/>
      <point x="192" y="1102"/>
      <point x="47" y="881"/>
    </contour>
    <contour>
      <point x="407" y="532" type="curve" smooth="yes"/>
      <point x="407" y="553" type="line"/>
      <point x="407" y="705"/>
      <point x="445" y="812"/>
      <point x="562" y="812" type="curve" smooth="yes"/>
      <point x="695" y="812"/>
      <point x="738" y="736"/>
      <point x="732" y="553" type="curve"/>
      <point x="732" y="519" type="line"/>
      <point x="740" y="365"/>
      <point x="698" y="270"/>
      <point x="560" y="270" type="curve" smooth="yes"/>
      <point x="440" y="270"/>
      <point x="407" y="387"/>
    </contour>
  </outline>
</glyph>
<glyph name="nine.smcp" format="2">
  <advance width="1081"/>
  <outline>
    <contour>
      <point x="315" y="263" type="curve"/>
      <point x="296" y="263" type="line"/>
      <point x="297" y="-23" type="line"/>
      <point x="321" y="-23" type="line"/>
      <point x="656" y="-23"/>
      <point x="1014" y="57"/>
      <point x="1014" y="617" type="curve"/>
      <point x="1014" y="700" type="line"/>
      <point x="1014" y="1074"/>
      <point x="776" y="1182"/>
      <point x="540" y="1182" type="curve" smooth="yes"/>
      <point x="271" y="1182"/>
      <point x="64" y="985"/>
      <point x="64" y="752" type="curve"/>
      <point x="64" y="471"/>
      <point x="224" y="366"/>
      <point x="455" y="366" type="curve"/>
      <point x="617" y="366"/>
      <point x="794" y="511"/>
      <point x="784" y="680" type="curve"/>
      <point x="673" y="680" type="line"/>
      <point x="678" y="677"/>
      <point x="651" y="629"/>
      <point x="560" y="629" type="curve"/>
      <point x="471" y="629"/>
      <point x="426" y="656"/>
      <point x="426" y="744" type="curve"/>
      <point x="426" y="827"/>
      <point x="469" y="892"/>
      <point x="540" y="892" type="curve" smooth="yes"/>
      <point x="619" y="892"/>
      <point x="654" y="868"/>
      <point x="654" y="778" type="curve" smooth="yes"/>
      <point x="654" y="526" type="line" smooth="yes"/>
      <point x="654" y="244"/>
      <point x="499" y="263"/>
    </contour>
  </outline>
</glyph>
<glyph name="nine.sup" format="2">
  <advance width="770.65"/>
  <outline>
    <contour>
      <point x="233" y="174" type="curve"/>
      <point x="220" y="174" type="line"/>
      <point x="220" y="-16" type="line"/>
      <point x="236" y="-16" type="line"/>
      <point x="469" y="-16"/>
      <point x="704" y="47"/>
      <point x="704" y="418" type="curve"/>
      <point x="704" y="475" type="line"/>
      <point x="704" y="724"/>
      <point x="546" y="801"/>
      <point x="384" y="801" type="curve" smooth="yes"/>
      <point x="203" y="801"/>
      <point x="64" y="668"/>
      <point x="64" y="510" type="curve"/>
      <point x="64" y="323"/>
      <point x="171" y="249"/>
      <point x="329" y="249" type="curve"/>
      <point x="440" y="249"/>
      <point x="558" y="347"/>
      <point x="552" y="460" type="curve"/>
      <point x="479" y="462" type="line"/>
      <point x="482" y="458"/>
      <point x="461" y="423"/>
      <point x="398" y="423" type="curve"/>
      <point x="335" y="423"/>
      <point x="303" y="444"/>
      <point x="303" y="505" type="curve"/>
      <point x="303" y="563"/>
      <point x="334" y="610"/>
      <point x="384" y="610" type="curve" smooth="yes"/>
      <point x="440" y="610"/>
      <point x="466" y="591"/>
      <point x="466" y="526" type="curve" smooth="yes"/>
      <point x="466" y="357" type="line" smooth="yes"/>
      <point x="466" y="168"/>
      <point x="363" y="174"/>
    </contour>
  </outline>
</glyph>
<glyph name="p.ss06" format="2">
  <advance width="1179.8"/>
  <outline>
    <contour>
      <point x="452" y="-416" type="line"/>
      <point x="452" y="874" type="line"/>
      <point x="430" y="1082" type="line"/>
      <point x="92" y="1082" type="line"/>
      <point x="92" y="-416" type="line"/>
    </contour>
    <contour>
      <point x="1127" y="531" type="curve" smooth="yes"/>
      <point x="1127" y="552" type="line"/>
      <point x="1127" y="880"/>
      <point x="961" y="1102"/>
      <point x="685" y="1102" type="curve" smooth="yes"/>
      <point x="424" y="1102"/>
      <point x="326" y="848"/>
      <point x="282" y="530" type="curve"/>
      <point x="282" y="542" type="line"/>
      <point x="327" y="245"/>
      <point x="425" y="-20"/>
      <point x="686" y="-20" type="curve" smooth="yes"/>
      <point x="961" y="-20"/>
      <point x="1127" y="217"/>
    </contour>
    <contour>
      <point x="767" y="552" type="curve" smooth="yes"/>
      <point x="767" y="531" type="line"/>
      <point x="767" y="386"/>
      <point x="715" y="271"/>
      <point x="596" y="271" type="curve" smooth="yes"/>
      <point x="458" y="271"/>
      <point x="404" y="365"/>
      <point x="412" y="518" type="curve"/>
      <point x="412" y="553" type="line"/>
      <point x="406" y="736"/>
      <point x="461" y="812"/>
      <point x="594" y="812" type="curve" smooth="yes"/>
      <point x="710" y="812"/>
      <point x="767" y="704"/>
    </contour>
  </outline>
</glyph>
<glyph name="q.ss06" format="2">
  <advance width="1178.625"/>
  <outline>
    <contour>
      <point x="728" y="851" type="line"/>
      <point x="728" y="-416" type="line"/>
      <point x="1090" y="-416" type="line"/>
      <point x="1090" y="1082" type="line"/>
      <point x="776" y="1082" type="line"/>
    </contour>
    <contour>
      <point x="53" y="552" type="curve" smooth="yes"/>
      <point x="53" y="531" type="line"/>
      <point x="53" y="217"/>
      <point x="218" y="-20"/>
      <point x="492" y="-20" type="curve" smooth="yes"/>
      <point x="754" y="-20"/>
      <point x="852" y="243"/>
      <point x="898" y="540" type="curve"/>
      <point x="898" y="528" type="line"/>
      <point x="853" y="847"/>
      <point x="754" y="1102"/>
      <point x="494" y="1102" type="curve" smooth="yes"/>
      <point x="218" y="1102"/>
      <point x="53" y="880"/>
    </contour>
    <contour>
      <point x="413" y="531" type="curve" smooth="yes"/>
      <point x="413" y="552" type="line"/>
      <point x="413" y="704"/>
      <point x="470" y="812"/>
      <point x="587" y="812" type="curve" smooth="yes"/>
      <point x="720" y="812"/>
      <point x="774" y="736"/>
      <point x="768" y="552" type="curve"/>
      <point x="768" y="518" type="line"/>
      <point x="777" y="364"/>
      <point x="723" y="271"/>
      <point x="585" y="271" type="curve" smooth="yes"/>
      <point x="465" y="271"/>
      <point x="413" y="385"/>
    </contour>
  </outline>
</glyph>
<glyph name="reshhebrew.003" format="2">
  <advance width="1071.025"/>
  <anchor x="789" y="0" name="bottom"/>
  <anchor x="328" y="603" name="center"/>
  <anchor x="540" y="1210" name="top"/>
  <anchor x="7" y="1210" name="topleft"/>
  <outline>
    <contour>
      <point x="596" y="0" type="line"/>
      <point x="974" y="0" type="line"/>
      <point x="974" y="760" type="line" smooth="yes"/>
      <point x="974" y="1042"/>
      <point x="786" y="1210"/>
      <point x="471" y="1210" type="curve" smooth="yes"/>
      <point x="96" y="1210" type="line"/>
      <point x="96" y="918" type="line"/>
      <point x="439" y="918" type="line" smooth="yes"/>
      <point x="544" y="918"/>
      <point x="596" y="871"/>
      <point x="596" y="777" type="curve" smooth="yes"/>
    </contour>
  </outline>
</glyph>
<glyph name="six.smcp" format="2">
  <advance width="1081.15"/>
  <outline>
    <contour>
      <point x="832" y="1196" type="line"/>
      <point x="770" y="1196" type="line"/>
      <point x="450" y="1196"/>
      <point x="57" y="1064"/>
      <point x="57" y="541" type="curve"/>
      <point x="57" y="472" type="line"/>
      <point x="57" y="102"/>
      <point x="289" y="-16"/>
      <point x="565" y="-16" type="curve" smooth="yes"/>
      <point x="835" y="-16"/>
      <point x="1044" y="156"/>
      <point x="1044" y="391" type="curve"/>
      <point x="1044" y="634"/>
      <point x="906" y="781"/>
      <point x="674" y="781" type="curve"/>
      <point x="422" y="781"/>
      <point x="297" y="582"/>
      <point x="309" y="434" type="curve"/>
      <point x="400" y="428" type="line"/>
      <point x="396" y="438"/>
      <point x="445" y="496"/>
      <point x="550" y="496" type="curve"/>
      <point x="625" y="496"/>
      <point x="682" y="482"/>
      <point x="682" y="397" type="curve" smooth="yes"/>
      <point x="682" y="330"/>
      <point x="624" y="272"/>
      <point x="553" y="272" type="curve" smooth="yes"/>
      <point x="451" y="272"/>
      <point x="417" y="304"/>
      <point x="417" y="396" type="curve" smooth="yes"/>
      <point x="417" y="576" type="line" smooth="yes"/>
      <point x="417" y="903"/>
      <point x="625" y="903"/>
      <point x="816" y="903" type="curve"/>
      <point x="832" y="903" type="line"/>
    </contour>
  </outline>
</glyph>
<glyph name="six.sup" format="2">
  <advance width="770.65"/>
  <outline>
    <contour>
      <point x="582" y="810" type="line"/>
      <point x="541" y="810" type="line"/>
      <point x="320" y="810"/>
      <point x="60" y="715"/>
      <point x="60" y="366" type="curve"/>
      <point x="60" y="318" type="line"/>
      <point x="60" y="72"/>
      <point x="215" y="-11"/>
      <point x="402" y="-11" type="curve" smooth="yes"/>
      <point x="585" y="-11"/>
      <point x="724" y="106"/>
      <point x="724" y="265" type="curve"/>
      <point x="724" y="428"/>
      <point x="632" y="529"/>
      <point x="474" y="529" type="curve"/>
      <point x="304" y="529"/>
      <point x="220" y="396"/>
      <point x="226" y="297" type="curve"/>
      <point x="287" y="290" type="line"/>
      <point x="284" y="300"/>
      <point x="320" y="340"/>
      <point x="392" y="340" type="curve"/>
      <point x="446" y="340"/>
      <point x="485" y="328"/>
      <point x="485" y="269" type="curve" smooth="yes"/>
      <point x="485" y="221"/>
      <point x="445" y="180"/>
      <point x="394" y="180" type="curve" smooth="yes"/>
      <point x="324" y="180"/>
      <point x="298" y="204"/>
      <point x="298" y="269" type="curve" smooth="yes"/>
      <point x="298" y="391" type="line" smooth="yes"/>
      <point x="298" y="610"/>
      <point x="436" y="615"/>
      <point x="571" y="615" type="curve"/>
      <point x="582" y="615" type="line"/>
    </contour>
  </outline>
</glyph>
<glyph name="three.smcp" format="2">
  <advance width="1081"/>
  <outline>
    <contour>
      <point x="518" y="709" type="curve" smooth="yes"/>
      <point x="383" y="709" type="line"/>
      <point x="383" y="562" type="line"/>
      <point x="576" y="562" type="line"/>
      <point x="798" y="562"/>
      <point x="1004" y="646"/>
      <point x="1004" y="845" type="curve"/>
      <point x="1004" y="1065"/>
      <point x="801" y="1182"/>
      <point x="507" y="1182" type="curve" smooth="yes"/>
      <point x="274" y="1182"/>
      <point x="49" y="1077"/>
      <point x="49" y="844" type="curve"/>
      <point x="409" y="844" type="line"/>
      <point x="409" y="877"/>
      <point x="462" y="892"/>
      <point x="520" y="892" type="curve" smooth="yes"/>
      <point x="619" y="892"/>
      <point x="644" y="840"/>
      <point x="644" y="812" type="curve"/>
      <point x="644" y="748"/>
      <point x="604" y="709"/>
    </contour>
    <contour>
      <point x="383" y="622" type="line"/>
      <point x="383" y="481" type="line"/>
      <point x="518" y="481" type="line" smooth="yes"/>
      <point x="611" y="481"/>
      <point x="665" y="453"/>
      <point x="665" y="373" type="curve" smooth="yes"/>
      <point x="665" y="328"/>
      <point x="633" y="273"/>
      <point x="533" y="273" type="curve" smooth="yes"/>
      <point x="442" y="273"/>
      <point x="389" y="323"/>
      <point x="389" y="364" type="curve"/>
      <point x="26" y="364" type="line"/>
      <point x="26" y="77"/>
      <point x="291" y="-16"/>
      <point x="506" y="-16" type="curve" smooth="yes"/>
      <point x="801" y="-16"/>
      <point x="1025" y="110"/>
      <point x="1025" y="328" type="curve" smooth="yes"/>
      <point x="1025" y="579"/>
      <point x="811" y="622"/>
      <point x="576" y="622" type="curve" smooth="yes"/>
    </contour>
  </outline>
</glyph>
<glyph name="two.smcp" format="2">
  <advance width="1081"/>
  <outline>
    <contour>
      <point x="1007" y="0" type="line"/>
      <point x="1007" y="289" type="line"/>
      <point x="547" y="289" type="line"/>
      <point x="634" y="342" type="line" smooth="yes"/>
      <point x="884" y="522"/>
      <point x="985" y="614"/>
      <point x="985" y="801" type="curve" smooth="yes"/>
      <point x="985" y="1048"/>
      <point x="810" y="1182"/>
      <point x="499" y="1182" type="curve" smooth="yes"/>
      <point x="220" y="1182"/>
      <point x="41" y="990"/>
      <point x="41" y="760" type="curve"/>
      <point x="402" y="760" type="line"/>
      <point x="402" y="823"/>
      <point x="443" y="892"/>
      <point x="517" y="892" type="curve" smooth="yes"/>
      <point x="591" y="892"/>
      <point x="623" y="860"/>
      <point x="623" y="801" type="curve" smooth="yes"/>
      <point x="623" y="772"/>
      <point x="578" y="678"/>
      <point x="487" y="605" type="curve" smooth="yes"/>
      <point x="68" y="241" type="line"/>
      <point x="68" y="0" type="line"/>
    </contour>
  </outline>
</glyph>
<glyph name="zero.sup" format="2">
  <advance width="770.65"/>
  <outline>
    <contour>
      <point x="705" y="300" type="curve"/>
      <point x="705" y="484" type="line"/>
      <point x="705" y="697"/>
      <point x="570" y="800"/>
      <point x="384" y="800" type="curve" smooth="yes"/>
      <point x="198" y="800"/>
      <point x="66" y="697"/>
      <point x="66" y="484" type="curve"/>
      <point x="66" y="300" type="line"/>
      <point x="66" y="86"/>
      <point x="199" y="-11"/>
      <point x="386" y="-11" type="curve" smooth="yes"/>
      <point x="571" y="-11"/>
      <point x="705" y="86"/>
    </contour>
    <contour>
      <point x="468" y="488" type="curve"/>
      <point x="468" y="297" type="line"/>
      <point x="468" y="199"/>
      <point x="433" y="181"/>
      <point x="386" y="181" type="curve" smooth="yes"/>
      <point x="336" y="181"/>
      <point x="305" y="199"/>
      <point x="305" y="297" type="curve" smooth="yes"/>
      <point x="305" y="488" type="line" smooth="yes"/>
      <point x="305" y="582"/>
      <point x="336" y="608"/>
      <point x="384" y="608" type="curve" smooth="yes"/>
      <point x="433" y="608"/>
      <point x="468" y="582"/>
    </contour>
  </outline>
</glyph>
